<?xml version="1.0" encoding="UTF-8"?>
<svg id="Ebene_1" data-name="Ebene 1" xmlns="http://www.w3.org/2000/svg" viewBox="0 0 48 48">
  <defs>
    <style>
      .cls-1 {
        fill: #d53918;
      }

      .cls-1, .cls-2 {
        stroke-width: 0px;
      }

      .cls-2 {
        fill: #e7a9bf;
      }
    </style>
  </defs>
  <circle class="cls-2" cx="24" cy="24" r="22.57"/>
  <path class="cls-1" d="m19.9,40.59c0-1.44.52-7.52.68-9.01.32-2.24.85-4.49,1.6-6.62.21-.64.48-1.23.69-1.82.16-.27.48-.43.75-.27,2.51,1.01,4.65,1.87,7.32.37,3.15-1.76,5.18-4.7,5.93-7.9.11-.32-.11-.64-.38-.75-1.44-.48-2.99-.69-4.49-.64-1.6.11-3.15.48-4.65,1.17-.16.05-.27-.05-.27-.16.21-1.6.11-3.15-.27-4.65-.43-1.55-1.12-2.94-2.03-4.22-.21-.27-.53-.32-.8-.16-2.88,1.71-5.02,4.59-5.71,8.12-.64,3.15,1.01,4.96,2.94,7.15.11.16.16.38.05.59-.32.75-.64,1.44-.91,2.19-.11.21-.43.21-.48.05-.43-.96-1.12-1.92-2.08-2.67-2.35-1.76-5.71-1.28-5.71-1.28,0,0,.48,3.36,2.83,5.18,1.34,1.01,3.04,1.28,4.22,1.33.16,0,.27.16.21.32-.8,2.94-1.23,10.62-1.33,13.66,0,.32.21.54.54.54h.81c.32,0,.53-.21.53-.54Zm12.75-32.19c-.05-.32-.32-.53-.64-.48-1.49.16-2.88.59-4.22,1.23-.11.05-.21.21-.16.32.37,1.33.69,2.51.59,3.95,0,.22.21.38.43.27,1.28-.59,2.46-.69,3.9-.75.11,0,.21-.11.27-.27.21-1.44.16-2.88-.16-4.27Z"/>
</svg>