<?xml version="1.0" encoding="UTF-8"?>
<svg id="Layer_1" xmlns="http://www.w3.org/2000/svg" version="1.1" viewBox="0 0 1920 1080">
  <!-- Generator: Adobe Illustrator 30.5.1, SVG Export Plug-In . SVG Version: 2.1.4 Build 3)  -->
  <defs>
    <style>
      .st0 {
        fill: #fff2d6;
      }
    </style>
  </defs>
  <path class="st0" d="M157.17,224.56c-1.06-.95-2.46-1.09-4.64-.99-4.84,2.55-7.22,5.73-4.64,11.93,9.58,6.27,16.15-7.76,9.28-10.93Z"/>
  <path class="st0" d="M142.92,347.45c-.77-.11-1.55-.22-2.32-.33-.77.55-1.55,1.1-2.32,1.66-1.36,4.48-1.6,11.5,3.31,12.59,1.61.5,2.51-.75,3.64-1.66,1.2-4.31,1.68-10.4-2.32-12.26Z"/>
  <path class="st0" d="M168.1,433.58c1.65-5.52.08-10.2-6.29-9.94-.66.33-1.33.66-1.99.99-4.79,7.21,1.53,14.53,8.28,8.94Z"/>
  <path class="st0" d="M149.88,400.78c8.66.21,8.91-12.9-.66-12.26-.55.22-1.1.44-1.66.66-3.22,4.33-2.79,9.37,2.32,11.59Z"/>
  <path class="st0" d="M1062.81,527.65c1.41-1.97,2.39-3.34,2.32-6.96-1.09-1.15-1.21-1.7-3.31-1.99-2.49,1.6-3.77,2.37-4.97,5.3.06,2.06.38,2.69.99,3.98,1.88.38,3.38.14,4.97-.33Z"/>
  <path class="st0" d="M1064.14,486.58c-.22-.55-.44-1.1-.66-1.66-.88-.22-1.77-.44-2.65-.66-3.04,2.37-5.84,5.25-4.31,10.27.66.33,1.33.66,1.99.99,3.71-1.19,6.61-4.37,5.63-8.94Z"/>
  <path class="st0" d="M1069.77,503.47c.11.88.22,1.77.33,2.65.55.33,1.1.66,1.66.99,2.87-.17,4.17-1.46,4.97-3.64.11-.88.22-1.77.33-2.65-1.14-1.2-1.61-1.91-3.64-2.32-1.82,1.45-3.14,2.12-3.64,4.97Z"/>
  <path class="st0" d="M1099.25,527.32c1.5-.7,1.95-1.52,2.65-2.98-.11-.66-.22-1.33-.33-1.99-.66-.66-1.33-1.33-1.99-1.99-.66-.11-1.33-.22-1.99-.33-1.34,1.46-2.37,2.34-3.31,4.31v2.32c.66.44,1.33.88,1.99,1.33.99-.22,1.99-.44,2.98-.66Z"/>
  <path class="st0" d="M1098.92,501.48c-.19-2.29-.78-3.29-2.98-3.64-.66.88-1.33,1.77-1.99,2.65v1.66c.55.44,1.1.88,1.66,1.33,2.1-.31,2.21-.83,3.31-1.99Z"/>
  <path class="st0" d="M1077.72,249.73c.89-3.84-.07-5.69-1.33-8.61-1.6-1.01-2.52-1.67-5.3-1.66-.44.22-.88.44-1.33.66-4.15,1.85-3.43,6.67-1.99,10.6,1.58,1.13,2.73,2.07,5.3,2.32,2.22-.92,3.16-1.76,4.64-3.31Z"/>
  <path class="st0" d="M1096.6,471.01c-.88-.33-1.77-.66-2.65-.99-3.22,2.2-4.77,4.7-5.3,9.61.22.33.44.66.66.99.99.11,1.99.22,2.98.33,2.91-2.44,5.6-5.16,4.31-9.94Z"/>
  <path class="st0" d="M178.37,397.8c4.52,3.63,8.77-.42,10.6-3.64-.15-4.87-2.72-7.44-7.95-7.29-3.26,1.86-7.29,7.21-2.65,10.93Z"/>
  <path class="st0" d="M1082.36,519.37c.77,1.3.89,1.6,2.65,1.99,4.36-2.68,7.01-4.64,5.96-10.93-.77-.33-1.55-.66-2.32-.99-3.32,2.86-4.75,5.15-6.29,9.94Z"/>
  <path class="st0" d="M1088.98,301.08c3.7,2.33,6.92.78,8.28-2.98-.02-2.82-.72-3.81-2.32-4.97-.88-.11-1.77-.22-2.65-.33-.55.22-1.1.44-1.66.66-1.75,2.28-2.76,4.06-1.66,7.62Z"/>
  <path class="st0" d="M1073.08,108.29c12.02-4.75,26.57-40.73,4.97-44.72-9.32,4.27-12.33,11.29-14.24,22.86-1.65,9.96,1.3,21.08,9.28,21.86Z"/>
  <path class="st0" d="M861.41,54.62c1.16-.67,1.43-1.43,1.99-2.65-.11-2.74-1-4.42-2.98-5.3-1.1-.11-2.21-.22-3.31-.33-.88.66-1.77,1.33-2.65,1.99-1.46,4.63,2.9,10.5,6.96,6.29Z"/>
  <path class="st0" d="M282.38,93.38c1.78.51,3.6.93,5.3,0,.77-.55,1.55-1.1,2.32-1.66,1.42-4.69,0-8.83-5.63-8.61-1.21.77-2.43,1.55-3.64,2.32-.43,1.55-.85,3.22-.33,4.97.66.99,1.33,1.99,1.99,2.98Z"/>
  <path class="st0" d="M281.39,273.25c9.39-2.35,7.57-16.59-4.31-15.9-9.02,5.1-6.08,18.5,4.31,15.9Z"/>
  <path class="st0" d="M308.88,156.32c15.04,3.37,25.91-18.79,28.16-29.81,2.79-13.72-2.21-27.46-15.24-27.16-12.44,6.26-17.77,17.07-20.87,32.46-2.04,10.14-.41,22.64,7.95,24.51Z"/>
  <path class="st0" d="M272.44,490.22c3.11-.1,3.6-1.01,5.3-2.32,1.18-4.35-.22-6.59-2.32-9.28-1.44-.22-2.87-.44-4.31-.66-.55.22-1.1.44-1.66.66-1.2,1.54-3.36,3.92-1.99,6.96.89,2.65,2.41,3.66,4.97,4.64Z"/>
  <path class="st0" d="M271.12,386.54c1.18-1.31,1.37-4.65.33-6.29-.99-2.21-2.58-2.84-5.3-3.31-3.17,1.47-4.45,1.55-5.96,4.64,0,2.98.59,4.06,1.32,5.96,2.8,2.07,7.91,2.99,9.61-.99Z"/>
  <path class="st0" d="M315.84,62.24c11.86-2.18,11.99-23.1-2.65-22.53-3,1.46-5.63,2.56-7.29,5.3-4.47,7.41,1.1,18.85,9.94,17.23Z"/>
  <path class="st0" d="M265.82,52.64c4.64.91,6.2-1.99,7.95-4.97-.11-3.91-2.02-5.21-6.29-4.97-3.44,2.31-6.28,6.76-1.66,9.94Z"/>
  <path class="st0" d="M366.85,115.24c21.49-4.78,17.05-47.28-7.95-46.71-3.73,1.92-6.52,3.16-8.61,6.63-7.75,12.85-1.26,44.04,16.56,40.08Z"/>
  <path class="st0" d="M424.82,77.15c2.26-.96,4.11-4.8,2.32-7.62-.77-.88-1.55-1.77-2.32-2.65-1.32-.11-2.65-.22-3.98-.33-.66.33-1.33.66-1.99.99-2.34,3.7-1.4,6.62.99,9.61,1.72.5,3.39.95,4.97,0Z"/>
  <path class="st0" d="M451.65,34.75c4.46-.2,6.33-2.27,7.62-5.63-.33-1.32-.66-2.65-.99-3.98-1.66-1.08-2.64-1.72-5.63-1.66-2.46,1.47-4.48,1.79-4.97,5.3-1.15,3.09,1.96,4.82,3.98,5.96Z"/>
  <path class="st0" d="M1084.68,344.14c-4.64,1.21-9.28,2.43-13.91,3.64-29.01,10.22-82.38,27.54-63.93,70.56,2.57,5.98,5.71,11.61,10.6,15.24,9.63,7.14,29.72,9.47,45.38,5.63,24.95-6.12,48.57-20.39,54.99-44.72,6.88-26.08-8.99-50.71-33.13-50.35Z"/>
  <path class="st0" d="M244.62,246.09c-2.03-1.51-3.59-2.68-7.29-2.65-4.43,2.26-9.59,5.83-7.29,12.59,3.71,9.84,18.87,2.42,14.58-9.94Z"/>
  <path class="st0" d="M219.77,470.01c20.74-3.8,20.53-35.16-3.64-34.45-6.38,2.86-11.02,4.71-13.25,11.59-3.83,11.81,4.7,25.09,16.89,22.86Z"/>
  <path class="st0" d="M208.51,306.04c-6.06,3.07-8.4,13.17,1.33,13.91,3.52-1.73,8.63-5.43,5.3-10.6-1.05-2.36-3.11-3.4-6.63-3.31Z"/>
  <path class="st0" d="M208.84,393.83c1.62,1.13,3.11,1.99,5.63,2.32,2.07-1.17,3.11-1.73,4.64-3.31,1.33-5-.38-9.47-6.29-9.28-4.66,2.39-5.92,4.83-3.98,10.27Z"/>
  <path class="st0" d="M259.19,335.53c1.71,3.15,5.43,2.19,8.28.99,2.05-2.89,2.11-5.18.66-8.61-1.71-1.07-2.95-1.72-5.96-1.66-2.66,1.55-6.78,5.58-2.98,9.28Z"/>
  <path class="st0" d="M194.93,52.3c4.14,0,5.07-1.28,7.29-2.98,1.26-4.19.9-7.36-2.32-9.61-1.21-.22-2.43-.44-3.64-.66-.99.44-1.99.88-2.98,1.33-2.88,3.96-3.24,9.66,1.66,11.93Z"/>
  <path class="st0" d="M176.71,355.4c.44,1.44.88,2.87,1.33,4.31,2.95,1.92,4.84,1.87,8.28.66,1.62-2.56,1.69-4.48.66-7.62-1.45-1.08-2.36-1.95-4.64-2.32-3.24,1.59-3.79,2.06-5.63,4.97Z"/>
  <path class="st0" d="M153.19,163.94c7.93,6.16,16.61,9.1,28.49,11.59,6.71,1.41,16.49,2.71,24.51,1.33,22.37-3.85,40.78-11.98,50.02-28.82,3.68-6.71,3.9-14.04,4.97-22.19,4.43-33.92-32.81-60.49-68.57-59.96-4.64.88-9.28,1.77-13.91,2.65-16.1,4.91-29.45,16.41-35.78,31.14-9.38,21.83-5.12,52.3,10.27,64.26ZM213.15,104.31l.66.33-.66.66c-.11-.22-.22-.44-.33-.66.11-.11.22-.22.33-.33Z"/>
  <path class="st0" d="M176.05,312.34c-4.8,2.46-5.85,6.39-2.32,10.93,1.79.52,3.96,1.01,5.63,0,1.61-.74,2.23-1.74,2.98-3.31.03-3.79-.82-4.93-2.32-6.96-1.32-.22-2.65-.44-3.98-.66Z"/>
  <path class="st0" d="M951.51,321.94c-.77.33-1.55.66-2.32.99-2.6,3.93-2.15,9.25,1.66,11.93,1.81.36,3.09.13,4.64-.33,2.25-2.95,3.86-9.56-.66-11.59-.86-.74-1.68-.94-3.31-.99Z"/>
  <path class="st0" d="M1054.2,204.02c13.86,2.8,23.89-37.98,1.66-37.43-2.51,1.24-5.34,1.89-6.96,3.98-6.71,8.67-7.2,30.93,5.3,33.46Z"/>
  <path class="st0" d="M971.06,428.94c-1.1-.22-2.21-.44-3.31-.66-.77.33-1.55.66-2.32.99-1.1,1.57-1.92,2.56-1.99,5.3.73,1.79,1.24,2.9,2.65,3.98,1.32.11,2.65.22,3.98.33,1.74-1.78,4.49-4.25,2.65-7.62-.55-.77-1.1-1.55-1.66-2.32Z"/>
  <path class="st0" d="M964.43,288.49c25.21-5.44,29.1-76.14-2.65-76.19-13.49,6.86-17.62,27.64-16.89,46.04.5,12.71,4.49,33.39,19.54,30.14Z"/>
  <path class="st0" d="M947.21,404.43c5.59-3.57,4.72-9.9.99-14.58-1.32-.22-2.65-.44-3.98-.66-.55.22-1.1.44-1.66.66-3.77,5.1-2.54,13.68,4.64,14.58Z"/>
  <path class="st0" d="M909.77,245.42c1.4.42,2.86-.49,4.31-.99,1.33-1.92,3.9-6.13,1.33-8.94-.87-1.61-2.1-2.04-4.64-1.99-2.82,1.81-4.9,3.38-5.3,7.62.89,2.32,1.47,3.87,4.31,4.31Z"/>
  <path class="st0" d="M916.4,192.42l.66-.33c3.53-14.93,3.29-31.54,5.96-48.03,3.69-22.72,4.62-54.18.99-77.84-1.8-11.76.28-30.28-4.31-39.42l-.66-.66c-.55-.11-1.1-.22-1.66-.33-2.56,13.9-.05,29.16-2.32,44.06-.33,12.14-.66,24.29-.99,36.44v26.5c.22,19.76.44,39.53.66,59.29.55.11,1.1.22,1.66.33Z"/>
  <path class="st0" d="M1044.26,34.42c-.19-2.93-1.07-3.93-2.32-5.63-1.32-.22-2.65-.44-3.98-.66-2.69,1.53-7.13,5.56-3.31,9.28,2.75,5.21,8.44.68,9.61-2.98Z"/>
  <path class="st0" d="M954.16,135.12c8.28-14.02,4.63-45.49,1.99-62.28-.66-.22-1.33-.44-1.99-.66-1.6,4.43-.5,10.15-1.33,15.57-1.49,9.78-4.83,40.76-.33,47.7.55-.11,1.1-.22,1.66-.33Z"/>
  <path class="st0" d="M1015.44,250.39c17.7-2.88,11.83-42.43-6.63-42.07-14.75,7.61-9.25,44.65,6.63,42.07Z"/>
  <path class="st0" d="M987.62,50.65c1.66-1.93.73-4.86,0-6.96-1.61-1.16-2.38-1.97-5.3-1.99-4.47,2.64-5.82,6.1-2.32,10.6,2.96.89,6.39,1.08,7.62-1.66Z"/>
  <path class="st0" d="M996.56,484.59c.94-3.53.17-5.6-.99-8.28-1.32-.55-2.65-1.1-3.98-1.66-1.44.88-2.87,1.77-4.31,2.65-2.46,8.23,4.04,11.6,9.28,7.29Z"/>
  <path class="st0" d="M755.74,135.45c.08,1.93.36,2.99,1.33,3.98.76,1.38,1.78,1.74,3.31,2.32,3.79-.1,4.93-1.81,5.96-4.64-.33-1.32-.66-2.65-.99-3.98-1.47-1.03-2.54-1.79-4.97-1.99-2.58,1.44-3.09,1.87-4.64,4.31Z"/>
  <path class="st0" d="M880.95,150.69c.77.11,1.55.22,2.32.33,7.61-10.91,2.22-63.26.66-79.5-.93-.58-.84-.75-2.32-.99-1.71,4.06-1.15,9.5-1.99,14.58-.88,14.68-1.77,29.37-2.65,44.06-.44,7.04-.5,19.21,3.98,21.53Z"/>
  <path class="st0" d="M702.41,94.7c-1.38,1.78-3.49,4.94-1.66,7.95.78,1.71,1.97,2.51,3.64,3.31,1.1-.11,2.21-.22,3.31-.33,5.2-1.99,4.11-7.51,1.33-10.93-1.66-.22-3.31-.44-4.97-.66-.55.22-1.1.44-1.66.66Z"/>
  <path class="st0" d="M848.49,182.82c.72-2.71.46-4.85-.33-7.29-1.72-1.21-2.84-2.02-5.96-1.99-3.97,2.47-5.39,5.29-3.31,10.27,3.74,2.36,6.62,1.4,9.61-.99Z"/>
  <path class="st0" d="M824.97,101.99c2.56.09,4.09-.12,5.3-1.33,2.47-1.29,2.68-4.19,1.99-6.96-.77-1.1-1.55-2.21-2.32-3.31-1.32-.22-2.65-.44-3.98-.66-5.3,2.61-7.6,9.23-.99,12.26Z"/>
  <path class="st0" d="M786.22,82.12c4.88.2,9.7-4.37,6.63-9.28-1.01-2.27-2.97-3.35-6.29-3.31-3.8,2.42-5.39,5.39-3.64,10.6,1.1.66,2.21,1.33,3.31,1.99Z"/>
  <path class="st0" d="M766.67,32.76c-1.21-.11-2.43-.22-3.64-.33-5.47,3.46-9.56,9.74-6.29,17.89,10.5,7.5,18.72-11.47,9.94-17.56Z"/>
  <path class="st0" d="M1304.63,151.68c.33-.77.66-1.55.99-2.32v-1.99c-1.15-.78-1.34-1.17-3.31-1.33-.55.33-1.1.66-1.66.99-1.52,3.89.07,5.9,3.97,4.64Z"/>
  <path class="st0" d="M1407.65,410.72c-.39,1.95-.13,3.6.33,5.3.77.44,1.55.88,2.32,1.33,1.32-.22,2.65-.44,3.98-.66.55-.99,1.1-1.99,1.66-2.98-.22-1.32-.44-2.65-.66-3.98-1.23-.84-2.04-1.39-3.97-1.66-1.62.93-2.56,1.22-3.64,2.65Z"/>
  <path class="st0" d="M1421.89,96.03c-8.33,4.23-15.18,23.49-1.33,25.84,12.17,2.06,16.41-26.23,1.33-25.84Z"/>
  <path class="st0" d="M1444.42,398.79c-.2-2.55-.93-3.43-1.99-4.97-1.44-.22-2.87-.44-4.31-.66-.77.55-1.55,1.1-2.32,1.66-1,3.44-.49,5.89,1.99,7.62,4.02.96,5.57-.61,6.63-3.64Z"/>
  <path class="st0" d="M1374.52,340.16c-.44-1.55-.88-3.09-1.32-4.64-1.44-.87-2.44-1.36-4.97-1.33-2.04,1.35-2.63,1.93-3.97,3.98.2,2.27.81,4,2.32,4.97.79.76,1.75.95,2.98,1.33,2.62-1.44,3.37-1.9,4.97-4.31Z"/>
  <path class="st0" d="M1443.75,444.18c1.21-.33,2.43-.66,3.64-.99,1.76-2.7,2.08-4.92.99-8.28-1.54-1.1-2.25-1.91-4.97-1.99-3.58,2.22-4.91,4.55-3.31,9.28,1.21.66,2.43,1.33,3.64,1.99Z"/>
  <path class="st0" d="M1422.22,366.66c-1.51.85-2.16,2.47-2.32,4.64,1.28,2.36,1.55,3.42,3.97,4.64.88-.22,1.77-.44,2.65-.66,1.69-.75,2.42-1.74,2.65-3.98.68-1.99-.97-3.67-1.99-4.97-1.1-.22-2.21-.44-3.31-.66-.55.33-1.1.66-1.66.99Z"/>
  <path class="st0" d="M1478.54,380.24c.6-2.61.13-4.03-2.65-4.31l-1.32.66c-.22.44-.44.88-.66,1.33.33.99.66,1.99.99,2.98.55.11,1.1.22,1.66.33.66-.33,1.32-.66,1.99-.99Z"/>
  <path class="st0" d="M1360.94,374.61c-.99.66-1.99,1.33-2.98,1.99-.52,1.79-1.01,3.96,0,5.63.77.77,1.55,1.55,2.32,2.32h2.98c2.85-.97,3.84-2.89,3.64-6.96-.88-.88-1.77-1.77-2.65-2.65-1.1-.11-2.21-.22-3.31-.33Z"/>
  <path class="st0" d="M1499.4,344.47c-.66.33-1.33.66-1.99.99-1.1,1.68-2.42,4.3-.99,6.63.74,1.61,1.74,2.23,3.31,2.98,3.07-.03,3.65-.76,5.3-1.99,1.09-3.92.07-6.13-2.32-8.28-1.1-.11-2.21-.22-3.31-.33Z"/>
  <path class="st0" d="M1472.57,395.81c-1.33,1.09-2.13,1.3-2.65,3.31-.35,1.1.16,2.46.99,3.31.6,1.04.93,1.12,1.99,1.66,2.01-.24,2.7-.75,3.64-1.99v-3.98c-.66-.66-1.33-1.33-1.99-1.99-.66-.11-1.33-.22-1.99-.33Z"/>
  <path class="st0" d="M1454.69,369.64c-.99.66-1.99,1.33-2.98,1.99-.68,2.31-.97,4.69.66,6.29.84,1.55,2.18,2.07,4.31,2.32.88-.44,1.77-.88,2.65-1.33,1.12-1.55,2.36-3.16,1.66-5.63-.88-1.1-1.77-2.21-2.65-3.31-1.21-.11-2.43-.22-3.64-.33Z"/>
  <path class="st0" d="M1487.81,452.13c1.21-.22,2.43-.44,3.64-.66,2.26-3.05,2.77-7.24-.66-9.61-.88-.11-1.77-.22-2.65-.33-1.1.77-2.21,1.55-3.31,2.32-.69,2.58-.43,4.28.33,6.63.88.55,1.77,1.1,2.65,1.66Z"/>
  <path class="st0" d="M1484.5,342.81c1.87-1.86,1.15-4.3.33-6.63-1.57-1.1-2.37-1.71-5.3-1.66-.44.33-.88.66-1.32.99-4.88,2.62-.8,7.56,1.99,9.28,2.24-.1,3.41-.57,4.31-1.99Z"/>
  <path class="st0" d="M1337.42,112.26c6.14,1.51,7.89-3.03,6.29-7.62-1.45-.94-2.16-1.59-4.64-1.66-.77.33-1.55.66-2.32.99-1.81,2.8-2.27,6.21.66,8.28Z"/>
  <path class="st0" d="M1346.37,347.45c-.46-1.02-.44-1.08-1.32-1.66-1.05-1.05-2.12-1.35-4.31-1.33-2.25,1.2-3.59,1.51-3.98,4.64-.74,2.18,1.21,3.93,2.32,5.3.99.22,1.99.44,2.98.66,1.32-.88,2.65-1.77,3.98-2.65.43-1.55.85-3.22.33-4.97Z"/>
  <path class="st0" d="M1316.55,324.59c-.5,1.5.44,2.9.99,4.31.88.44,1.77.88,2.65,1.33,1.44-.33,2.87-.66,4.31-.99.55-1.32,1.1-2.65,1.66-3.98-.33-.99-.66-1.99-.99-2.98-1.49-1.05-2.44-1.85-4.97-1.99-2.04,1.23-3.27,1.3-3.64,4.31Z"/>
  <path class="st0" d="M1378.5,292.46c2.76-1.17,4.47-5.7,1.99-8.28-.9-1.82-2.52-2.4-4.97-2.65-1.44.88-2.87,1.77-4.31,2.65-.71,2.66-.46,4.6.33,6.96,1.68,1.24,4.39,2.89,6.96,1.33Z"/>
  <path class="st0" d="M1333.78,297.1c2.56-.98,4.25-1.77,4.64-4.97.44-1.47-.48-3.16-.99-4.64-1.84-1.32-2.98-2.31-6.29-2.32-1.21.88-2.43,1.77-3.64,2.65-.43,1.55-.85,3.22-.33,4.97,1.02,2.6,3.31,4.04,6.62,4.31Z"/>
  <path class="st0" d="M1337.42,182.16c9.91-.03,11.03-18.21.33-18.55-5.69,3.43-7.46,15.11-.33,18.55Z"/>
  <path class="st0" d="M1353.32,324.59c3.37-1.47,3.38-5.52,1.99-8.94-1.57-1.1-2.56-1.92-5.3-1.99-.99.44-1.99.88-2.98,1.33-2.6,3.65-1.89,6.42.66,9.61,1.88.5,3.89.95,5.63,0Z"/>
  <path class="st0" d="M1529.22,405.42v2.32c.55.55,1.1,1.1,1.66,1.66.77.11,1.55.22,2.32.33.55-.66,1.1-1.33,1.66-1.99.11-.88.22-1.77.33-2.65-1.21-1.24-1.33-1.67-3.98-1.66-.66.66-1.32,1.33-1.99,1.99Z"/>
  <path class="st0" d="M1389.43,410.72c.77-.77,1.55-1.55,2.32-2.32.72-1.6.09-3.63-.33-4.97-.55-.33-1.1-.66-1.66-.99-.88-.11-1.77-.22-2.65-.33-1.1.77-2.21,1.55-3.31,2.32v3.64c.22.55.44,1.1.66,1.66,1.42.89,2.87,1.61,4.97.99Z"/>
  <path class="st0" d="M1387.11,178.51c1.59-1.83.71-4.27,0-6.29-1.75-1.24-2.74-2.04-5.96-1.99-1.21.88-2.43,1.77-3.64,2.65-.22.66-.44,1.33-.66,1.99-.06,3.01.63,4.71,2.65,5.63,2.47,2.2,6.65.39,7.62-1.99Z"/>
  <path class="st0" d="M1376.18,235.49c-2.78,1.49-3.76,1.89-4.97,4.97.24,3.39,1.48,4.33,2.98,6.29,2.21.59,4.09.6,6.29,0,3.36-4.52,1.92-10.57-4.31-11.26Z"/>
  <path class="st0" d="M1375.52,82.45c10.53-1.87,10.2-18.06-1.66-19.88-2.39,1.01-4.85,1.42-6.29,3.31-4.61,6.05-.92,18.14,7.95,16.56Z"/>
  <path class="st0" d="M1379.49,131.8c-.88.66-1.77,1.33-2.65,1.99-1.02,3.54-.02,5.92,2.98,7.29,1.1-.22,2.21-.44,3.31-.66,1.2-1.59,2.77-3.58,1.33-5.96-.66-.77-1.33-1.55-1.99-2.32-.99-.11-1.99-.22-2.98-.33Z"/>
  <path class="st0" d="M1344.71,400.12c2.33-.06,3.03-.49,4.64-.99,1.2-1.85,1.78-3.22,1.66-6.63-1.66-1.96-2.23-3.29-5.96-3.31-.88.44-1.77.88-2.65,1.33-.81,1.91-2.09,4.59-.66,6.96.7,1.5,1.52,1.95,2.98,2.65Z"/>
  <path class="st0" d="M1723.66,6.92c.55-.55,1.1-1.1,1.66-1.66.5-2.36,0-4.36-2.32-4.97-.77.22-1.55.44-2.32.66-.72,1.24-1.04,2.07-.99,4.31.11.22.22.44.33.66,1.13.71,1.55,1,3.64.99Z"/>
  <path class="st0" d="M1721.68,52.64c2.04,3.69,6.84,1.38,8.94-.33.89-3.22.33-4.79-1.33-6.96-1.21-.22-2.43-.44-3.64-.66-1.44.88-2.87,1.77-4.31,2.65-.58,1.93-1.02,3.83.33,5.3Z"/>
  <path class="st0" d="M1825.69,250.72c-3.13,2.04-6.15,4.95-4.31,9.94.77.88,1.55,1.77,2.32,2.65,7.37,1.77,13.2-8.58,6.63-11.59-1.06-.95-2.46-1.09-4.64-.99Z"/>
  <path class="st0" d="M1567.31,360.37c-.66.22-1.33.44-1.99.66-1.78,2.67-2.15,4.51-.99,7.95,1.67,1.32,3.91,3.3,6.63,1.66,1.61-.74,2.23-1.74,2.98-3.31-.03-3.43-.93-4.42-2.32-6.29-1.44-.22-2.87-.44-4.31-.66Z"/>
  <path class="st0" d="M1736.58,280.87c26.67-5.37,25.68-46.45-5.3-45.71-9.84,4.14-16.2,6.82-19.21,17.56-4.56,16.24,7.14,31.65,24.51,28.16Z"/>
  <path class="st0" d="M1768.71,200.04c7.96,4.72,21.53,10.68,36.11,7.95,29.01-5.44,48.87-27.44,40.41-65.26-4.09-18.3-10.33-34.17-15.24-51.34-7.51-26.3-7.76-55.37-41.74-55.32-6.86,2.74-12.94,2.9-18.55,6.29-18.73,11.33-30.85,32.63-36.44,56.98-10.46,45.59,7.72,84.27,35.44,100.7Z"/>
  <path class="st0" d="M1907.51,115.9c1.47,3.92,2.47,4.44,5.96,6.29,6.74-.22,8.27-5.83,5.96-11.26-1.89-1.34-3.24-2.35-6.62-2.32-3.05,1.71-4.94,2.85-5.3,7.29Z"/>
  <path class="st0" d="M1892.27,168.57c-.99-2.25-2.92-3.43-5.96-3.64-5.54,2.76-7.75,5.73-4.97,12.26,5.7,4.23,15.73-1.24,10.93-8.61Z"/>
  <path class="st0" d="M1876.7,261.99c5.3-2.01,4.15-7.8,1.33-11.26-1.66-.22-3.31-.44-4.97-.66-.77.33-1.55.66-2.32.99-3.68,4.86-1.36,13.54,5.96,10.93Z"/>
  <path class="st0" d="M1746.19,2.95c.77-.77,1.55-1.55,2.32-2.32V-.7h-6.29c.22,1.21.44,2.43.66,3.64h3.31Z"/>
  <path class="st0" d="M1699.81,208.66c-1.06-.95-2.46-1.09-4.64-.99-5.7,2.99-8.64,8.33-3.97,14.24,9.14,2.71,15.98-9.96,8.61-13.25Z"/>
  <path class="st0" d="M1881.34,304.39c-59.61-13.2-131.36-.11-174.9,18.55-28.22,12.09-50.3,28.94-72.54,46.71-6.4,6.29-12.81,12.59-19.21,18.88-8.17,8.06-16.34,16.12-24.51,24.18-20.71,25.72-49.9,54.44-87.12,63.27-26.93,6.38-55.74-2.89-74.53-10.6-49.37-20.25-111.01-69.15-182.85-43.06-55.33,20.09-87.07,73.05-130.18,106.66-18.13,14.13-42.21,34.41-76.19,26.83-70.79-15.78-103.17-77.01-123.89-142.77-12.66-40.17-21.15-82.88-36.77-119.58-40.79-95.89-115.56-150.27-220.95-181.86-18.58-5.57-38.24-7.65-58.96-11.26-41.23-7.19-89.19.42-120.91,10.27-94.61,29.37-148.37,89.25-173.58,188.15-3.66,14.35-4.61,29.53-7.29,45.05-.33,6.07-.66,12.15-.99,18.22-.22,7.18-.44,14.35-.66,21.53.44,9.83.88,19.66,1.33,29.48,1.63,9.77,2.67,24.06.99,34.45-1.38,8.55-.37,15.92-1.99,23.52-5.05,23.74-15.49,40.85-39.75,45.38-13.94,2.6-26.99-2.77-36.11-6.63-25.76-10.89-44.76-28.27-59.96-49.69-25.55-36.01-38.8-84.86-57.64-127.53-20.36-46.12-62.02-94.74-106.33-116.6-.11,30.36-.22,60.73-.33,91.09,4.1,4.47,10.56,8.6,13.25,14.24.22.22.44.44.66.66-.64.79-.2.55-1.33.99-4.04-3.1-6.78-8.39-11.59-10.6-.22-.22-.44-.44-.66-.66h-.33v63.93c1.42,2.64,5.13,5.36,6.96,7.95,3.53,5.41,7.07,10.82,10.6,16.23v1.66l-.66.33c-6.98-5.67-9.71-16.22-16.89-21.86v58.96c11.37,14.02,22.75,28.05,34.12,42.07,21.45,30.26,39.29,62.74,61.61,91.76,9.16,11.15,18.33,22.31,27.49,33.46,4.86,5.41,9.72,10.82,14.58,16.23.22.22.44.44.66.66l-.33.66c-4.5-1.45-8.79-8.75-11.59-12.26-8.53-10.68-18.06-20.48-26.5-31.47-12.83-16.71-25.82-33.55-38.09-51.01-11.04-17-22.08-34.01-33.13-51.01-9.49-11.7-18.99-23.41-28.49-35.11h-.33v49.36c1.44,2.64,5.12,5.35,6.96,7.95,8.5,12.59,17.01,25.18,25.51,37.76v1.33h-.99c-9.94-13.91-19.88-27.83-29.81-41.74-.44-.33-.88-.66-1.33-.99-1.6,3.89-.59,33.51.99,35.44-3.46,6.73-1.33,28.28-1.33,38.09v12.26c3.43,6.77,10.85,12.08,14.58,19.21-.11.22-.22.44-.33.66-2.53-.8-11.11-12.23-12.26-14.91-.55-.44-1.1-.88-1.66-1.33h-.33v103.68c8.28,3.31,16.56,6.63,24.84,9.94,18.35,8.03,35.9,18.09,52.67,28.16,43.44,26.08,84.6,57.35,140.78,69.89,29.98,6.69,66.15,1.15,91.09-6.63,39.24-12.23,74.59-29.84,107.33-49.03,35.21-20.64,69.95-40.3,94.08-71.88,28.84-37.76,38.91-95.5,59.29-141.78,9.06-20.56,22.51-41.04,43.06-50.02,16.6-7.25,39.42-4.64,54.99,1.66,32.52,13.16,55.16,34.41,74.53,60.62,5.34,7.22,20.68,24.17,22.53,32.79-1.52,2.49-3.54,3.65-3.64,7.62.44.22.88.44,1.33.66,2.97-.28,3.95-1.46,4.97-3.64h.66c5.74,8.94,11.48,17.89,17.23,26.83,10.64,16.88,22.19,33.57,34.12,49.36,46.66,61.73,109.57,113.97,191.8,139.79,44.87,14.09,100.6,5.16,144.1-4.31,11.37-1.44,22.75-2.87,34.12-4.31,8.17-1.35,19.53-.9,27.16.33,7.95.88,15.9,1.77,23.85,2.65,18.98,4.2,36.04,9.09,52.34,15.9,65.73,27.48,110.2,75.74,175.23,103.35,27.99,11.88,70.3,22.24,106.33,10.93,53.22-16.71,77.46-57.32,90.1-114.94,9.62-43.88,2.42-99.11,13.25-142.11,9.53-37.81,26.96-63.86,60.95-77.18,6.96-1.66,13.91-3.31,20.87-4.97,62.3-11.8,97.28,44.03,129.19,68.9,8.41,6.56,28.18,22.02,40.08,23.52v-122.89c-9.25-1.16-18.17-7.97-25.51-11.93-14.27-7.68-29.73-13.21-45.38-19.88v-.99c.22-.22.44-.44.66-.66,8.87,1.5,16.15,6.05,23.52,9.28,15.24,7.18,30.48,14.36,45.71,21.53h.99v-60.95c-7.56-2.15-29.95-11.3-33.79-16.56,1.87-1.7,6.56,1.43,8.94,2.65,7.19,3.69,16.16,10.79,24.84,11.93v-31.14c-9.61-3.75-19.21-7.51-28.82-11.26-18.44-6.18-36.88-12.37-55.32-18.55-11.1-3.51-30.75-7.19-38.09-14.24v-.33c4.61-1.73,26.18,7.95,31.8,9.94,19.65,6.73,39.31,13.47,58.96,20.21,10.49,3.97,20.98,7.95,31.47,11.93v-57.31c-12.03-3.2-24.07-6.4-36.11-9.61-8.72-1.32-17.45-2.65-26.17-3.98-.33-.33-.66-.66-.99-.99v-.33c4.3-1.14,9.82.3,13.58.99,9.4,1.74,17.9,2.1,26.5,4.31,7.73,2.1,15.46,4.2,23.19,6.29v-74.86c-3.86-.99-7.73-1.99-11.59-2.98-10.13-2.82-20.68-4.49-31.8-6.96ZM53.82,575.35c7.97,10.69,18.71,19.7,25.84,30.81-.67,1.22-.02.72-1.66.99-8.61-10.03-16.89-20.15-24.84-30.81-2.77-3.72-8.39-8.15-9.28-13.25,4.3,1.68,7.3,8.71,9.94,12.26ZM89.26,663.8l-.33.33c-3.75-2.1-7.51-4.2-11.26-6.29-21.09-12.28-35.07-23.01-51.34-39.75v-1.66h.99c9.27,7.95,18.55,15.9,27.83,23.85,10.8,8.15,22.86,14.71,34.12,22.53v.99ZM1790.25,338.18c-.11-.22-.22-.44-.33-.66.6.44.19.35.33.66ZM1763.74,335.53c.33.33.66.66.99.99-.11.22-.22.44-.33.66h-.66c-.22-.22-.44-.44-.66-.66.22-.33.44-.66.66-.99ZM1640.85,452.13c7.84-5.52,15.68-11.04,23.52-16.56h1.66c.11.11.22.22.33.33v.99c-6.07,4.53-12.15,9.05-18.22,13.58-12.81,9.98-25.98,22.8-35.78,35.78-3.15,4.17-16.17,26.08-19.54,27.16-.11-.22-.22-.44-.33-.66,11.65-22.78,28.96-45.35,48.36-60.62ZM1555.39,561.77c4.28-7.15,7.49-15.77,12.92-21.86.44.22.88.44,1.32.66-10.49,19.43-20.98,38.87-31.47,58.3-3.31,5.08-6.63,10.16-9.94,15.24l-.99.33c-.22-.44-.44-.88-.66-1.33,9.61-17.11,19.21-34.23,28.82-51.34ZM1469.26,532.95h.66v.99c-.33-.11-.66-.22-.99-.33.11-.22.22-.44.33-.66ZM1463.3,547.86h.99c.22.44.44.88.66,1.33h-1.66v-1.33ZM1442.43,552.5c.44.44.88.88,1.32,1.33-.76.79-.52.74-1.99.99-.31-1.49-.15-1.31.66-2.32ZM1434.48,500.16c.66.22,1.33.44,1.99.66-.38,1.44-.32,1.27-1.32,1.99-.33-.11-.66-.22-.99-.33.11-.77.22-1.55.33-2.32ZM1427.52,552.5h.99c-.26,1.18-.23.95-.66,1.66h-.33v-1.66ZM1425.87,523.68v.33c-.22.11-.44.22-.66.33-.22-.33-.44-.66-.66-.99.44.11.88.22,1.32.33ZM1417.59,519.04h.33c.22.22.44.44.66.66v.99c-1.53-.61-1.18-.24-.99-1.66ZM1418.58,550.51c-.22.22-.44.44-.66.66h-.33c.11-.44.22-.88.33-1.33h.33c.11.22.22.44.33.66ZM1393.73,600.86c21.18,10.75,39.74,25.02,62.28,34.45,9.37,3.92,23.84,8.41,37.43,4.97,10.9-2.76,16.87-8.98,25.18-13.58.22.11.44.22.66.33v.99c-32.85,33.05-74.52,8.67-103.02-10.27-5.81-3.86-20.11-10.52-23.52-15.9.33-.33.66-.66.99-.99ZM1379.16,468.36c.44.11.88.22,1.33.33v.99h-1.33v-1.33ZM1379.16,519.37c.3.59.32.08,0,.66v-.66ZM1377.17,488.9c-.15.37.28.25-.33.66.11-.22.22-.44.33-.66ZM1353.98,501.48h.99c.22.22.44.44.66.66v.99l-.99.66c-.33-.11-.66-.22-.99-.33.11-.66.22-1.33.33-1.99ZM1374.19,642.6v1.33c-.22.11-.44.22-.66.33-14.52-7.36-32.42-15.48-49.69-19.21-.45-1.02-.52-.83-.33-1.99,13.61.53,42.74,12.68,50.68,19.54ZM1336.1,443.85l1.32.66c-.11.22-.22.44-.33.66h-.66c-.22-.22-.44-.44-.66-.66.11-.22.22-.44.33-.66ZM1334.11,504.13h.66c.11.22.22.44.33.66-.11.22-.22.44-.33.66h-.33c-.65-.86-.32-.31-.33-1.33ZM1329.47,440.86h.99v1.33h-1.32c.11-.44.22-.88.33-1.33ZM1310.59,449.81c.33.11.66.22.99.33v1.33h-1.33c.11-.55.22-1.1.33-1.66ZM1312.25,496.85c-.11.22-.22.44-.33.66-.11-.22-.22-.44-.33-.66h.66ZM1302.64,458.75c.44.11.88.22,1.33.33v.66c-.68.72-.45.64-1.66.99-.11-.22-.22-.44-.33-.66.22-.44.44-.88.66-1.33ZM1301.32,463.39h1.33c-.46,1.11-.19.69-.99,1.33h-.33v-1.33ZM1299.99,476.97c.33.22.66.44.99.66-.22.33-.44.66-.66.99-.64-.89-.4-.55-.33-1.66ZM1298,433.91c1.39.51.82-.07,1.33,1.33h-1.33v-1.33ZM1298.67,441.2c.11.22.22.44.33.66-.99-.43-.4.01-.99-.66h.66ZM1293.37,433.58h.66c.11.11.22.22.33.33v.33c-.22.11-.44.22-.66.33l-.66-.66c.11-.11.22-.22.33-.33ZM1273.16,424.63l.99.66c-.44.22-.88.44-1.33.66.11-.44.22-.88.33-1.33ZM1269.51,475.31h.33l.33.99-.99-.66.33-.33ZM1266.2,544.22c7.29-1.77,14.58-3.53,21.86-5.3,2.65-.22,5.3-.44,7.95-.66,9.88-.03,26.49,2.79,30.14,8.28-.22.33-.44.66-.66.99-7.62-1.5-15.31-3.89-24.51-5.3-13.04-1.99-23.86,2.66-34.45,3.31-.11-.11-.22-.22-.33-.33v-.99ZM1265.21,425.96v.33c-1.26-.46-.69,0-1.33-.99.44.22.88.44,1.33.66ZM1255.27,424.96h1.33c.38,1.76.14,2.08-1.66,1.66.11-.55.22-1.1.33-1.66ZM1247.32,581.98c7.34-3.02,15.9-5.49,24.51-7.29,5.96-.66,11.93-1.33,17.89-1.99,12.27.04,22.91,1.14,32.46,2.65.33.33.66.66.99.99v1.33c-7.99,2.05-24.99-2.07-35.44-.33-18.79,3.12-35.61,6.15-51.34,11.59-.33-.11-.66-.22-.99-.33,1.15-3.84,8.34-5.15,11.93-6.63ZM1299.66,615.1c-.11.11-.22.22-.33.33-22.8-3.36-36.18.39-54.66,5.96h-.33c-2-6.04,24.23-9.28,30.81-11.59,9.34-.04,18.25-.13,24.18,2.98.11.77.22,1.55.33,2.32ZM1222.81,479.29h.33c.22.22.44.44.66.66v.99c-1.53-.61-1.18-.24-.99-1.66ZM1147.61,605.83c17.06-14.22,36.93-24.75,54.33-38.76h.99c-1.06,4.74-10.03,8.26-13.58,10.93-11.22,8.43-28.01,24.14-41.08,29.15-.22-.11-.44-.22-.66-.33v-.99ZM1077.06,626.7c4.09-.66,8.17-1.33,12.26-1.99,13.4-2.96,27.73-4.93,39.42-10.27h1.66c.11.22.22.44.33.66v.66c-15.2,5.88-33.67,12.76-53.33,12.59l-.33-.33v-1.33ZM1092.96,647.9c20.85-3.4,38.73-5.13,53.33-14.24h.33c.22.33.44.66.66.99-3.53,4.28-12.17,5.96-17.89,7.95-19.44,6.79-47.01,8.18-72.54,8.61l-.66-.99c8.2-3.99,26.37-.62,36.77-2.32ZM977.68,606.49c6.67.87,12.98,6.4,18.88,8.94,14.41,6.2,32.32,11.96,51.01,12.92.22.55.44,1.1.66,1.66-20.72-.44-63.66-11.1-70.89-22.53.11-.33.22-.66.33-.99ZM955.49,587.61v1.33c-2.58-.65-14.25-13.25-14.91-15.9,5.52,1.34,12.1,10.15,14.91,14.58ZM932.96,611.79c14.79,8.28,29.59,16.56,44.39,24.84v.99l-.33.33c-14.44-3.53-35.41-17.31-47.7-24.84-5.74-3.42-11.48-6.85-17.23-10.27-.81-1.12-1-1.06-.99-2.32,7.43.91,15.93,7.76,21.86,11.26ZM892.88,403.76l.33.66c-.22.33-.44.66-.66.99-.72-.68-.64-.45-.99-1.66h1.33ZM889.57,357.39v.33c-1.39-.51-.82.07-1.33-1.33,1.11.46.69.19,1.33.99ZM881.62,341.16c.33-.22.66-.44.99-.66.44.33.88.66,1.33.99v.33c-.11.22-.22.44-.33.66h-1.66l-.33-.33v-.99ZM879.3,310.35v1.33c-.79-.58-.57-.33-.99-1.33h.99ZM878.3,398.13v.33h-.33c-.22-.33-.44-.66-.66-.99.33.22.66.44.99.66ZM874,387.53c.11.22.22.44.33.66-.11.33-.22.66-.33.99-1.44-.55-.98,0-1.33-1.66h1.33ZM869.36,377.93c.22.33.44.66.66.99l-.66.66c-.72-.68-.64-.45-.99-1.66h.99ZM863.73,282.53c.22.44.44.88.66,1.33h-.99c.11-.44.22-.88.33-1.33ZM863.4,372.96c.44-.33.88-.66,1.33-.99,1.31.64,1.4.99,1.99,2.32-.88,1.35-1.48,1.52-3.31.99v-2.32ZM868.04,406.08v.33c-.75.62-.45.62-1.66.99.11-.55.22-1.1.33-1.66.44.11.88.22,1.33.33ZM861.41,366.33h1.33c.11.22.22.44.33.66v.33c-.44.33-.88.66-1.33.99h-.33v-1.99ZM858.43,318.63c.33.22.66.44.99.66-.22.22-.44.44-.66.66-.65-.86-.32-.31-.33-1.33ZM857.44,279.88c.22.11.44.22.66.33-.22.22-.44.44-.66.66v-.99ZM855.12,337.84c-.22.22-.44.44-.66.66-1.09-.75-.99-.34-1.33-1.99h1.66c.11.44.22.88.33,1.33ZM855.45,340.49c-.11.33-.22.66-.33.99-.67,1.03-.16.71-1.66.99-.11-.22-.22-.44-.33-.66.33-.55.66-1.1.99-1.66.44.11.88.22,1.33.33ZM853.79,283.85v.33c-.22.11-.44.22-.66.33-.11-.33-.22-.66-.33-.99.33.11.66.22.99.33ZM852.8,330.56h.99v.99c-.44-.22-.88-.44-1.33-.66l.33-.33ZM848.16,373.29v.99h-.33l-.66-.99h.99ZM837.23,349.77c.33.11.66.22.99.33.79.58.57.33.99,1.33v.33c-1.57.75-2.21.78-2.98-.99.33-.33.66-.66.99-.99ZM834.25,289.81h1.33l.33.99c-.33.33-.66.66-.99.99l-.66-.33v-1.66ZM834.25,362.69h1.33v1.66c-.44.11-.88.22-1.33.33v-1.99ZM833.59,404.43c6.46,1.08,19.43,22.86,23.19,28.82,19.53,31.01,37.78,64.51,56.64,95.73v1.66c-5.67-1.82-19.38-28.1-23.19-34.45-14.13-23.54-26.86-49.12-42.07-72.21-4.37-6.64-10-12.31-14.58-18.55v-.99ZM887.25,576.68v.99h-.99c-4.84-3.38-8.27-8.65-11.93-13.25-10.22-12.85-20.24-24.6-28.16-40.08-2.53-4.94-9.51-14.2-8.94-19.88,4,1,10.46,17.35,12.92,21.53,7.4,12.62,15.79,24.41,24.51,35.78,4.2,4.97,8.39,9.94,12.59,14.91ZM830.27,354.74h.99l.66.66v.99c-.22.22-.44.44-.66.66h-1.33c-.16-1.39-.16-1.21.33-2.32ZM811.39,289.15c-1.39-.51-.82.07-1.33-1.33,1.39.51.82-.07,1.33,1.33ZM810.73,302.73h.33c.08,0-.03.13-.33,0ZM810.4,295.78c-.99-.43-.4.01-.99-.66h.66l.33.66ZM809.4,278.88h1.33c-.11.44-.22.88-.33,1.33h-.66c-.22-.22-.44-.44-.66-.66.11-.22.22-.44.33-.66ZM805.76,277.89c.66-.44,1.33-.88,1.99-1.33h.66c-.58,1.47-.53,1.99-1.99,2.65-.22-.11-.44-.22-.66-.33v-.99ZM783.57,195.41l.33-.99h1.33c-.55,1.44,0,.98-1.66,1.33v-.33ZM784.89,238.8v.33h-.33c-.22-.33-.44-.66-.66-.99.33.22.66.44.99.66ZM782.57,215.28h1.33v1.99h-1.33v-1.99ZM775.95,214.95c-.11.22-.22.44-.33.66-.11-.22-.22-.44-.33-.66h.66ZM635.5,164.93c19.9,2.94,34.46,12.97,50.35,19.21.22.77.44,1.55.66,2.32-4.04.68-10.98-4.1-14.91-5.63-12.03-4.42-24.07-8.83-36.11-13.25-.33-.55-.66-1.1-.99-1.66.33-.33.66-.66.99-.99ZM613.3,218.92c1.88-.33,3.75-.66,5.63-.99,70.36-.17,118.48,48.71,150.06,88.44,9.52,11.98,19.79,23.05,28.82,35.78,2.65,3.86,5.3,7.73,7.95,11.59v.33c-.44.11-.88.22-1.33.33-7.51-9.49-15.02-18.99-22.53-28.49-8.72-9.38-17.45-18.77-26.17-28.16-20.59-25.64-46.81-48.16-78.84-62.28-15.07-6.65-40.95-17.25-63.6-13.91-.22-.22-.44-.44-.66-.66.22-.66.44-1.33.66-1.99ZM608,256.02c12.37,1.99,24.73,3.98,37.1,5.96,12.28,3.09,22.24,7.92,32.46,11.93l.33.99v.99c-5.41-2.32-10.82-4.64-16.23-6.96-11.05-4.28-23.37-6.36-36.11-8.94-4.3-.87-16.66-.12-18.22-3.64.22-.11.44-.22.66-.33ZM580.51,168.57c.44.22.88.44,1.33.66v.33c-.33.22-.66.44-.99.66-.64-.89-.4-.55-.33-1.66ZM564.28,132.47h-.33c-.79-.64-.55-.2-.99-1.33,1.39.51.82-.07,1.33,1.33ZM556.66,146.71c.11.22.22.44.33.66-.99-.43-.4.01-.99-.66h.66ZM539.43,113.92c.33.22.66.44.99.66l-.33.99h-.66l-.66-.66c.22-.33.44-.66.66-.99ZM501.67,188.45c8.3-5.53,18.06-10.58,28.49-13.91,4.97-1.1,9.94-2.21,14.91-3.31,6.13-.3,12-.86,12.59,4.64-4.13,6.83-37.4,18.39-47.04,22.19-3.37,1.33-12.49,5.14-15.9,2.32-6.11-3.83,4.68-10.41,6.96-11.93ZM486.1,126.17h.66v.99h-.33c-.22-.22-.44-.44-.66-.66.11-.11.22-.22.33-.33ZM465.23,180.5h.99c-.6.67,0,.25-.99.66v-.66ZM467.22,215.28c-.33.33-.66.66-.99.99-.63-.96-.34-.48-.33-1.66.44.22.88.44,1.33.66ZM439.39,171.56c.99.64.56.06.99,1.33l-.99.33c-.22-.22-.44-.44-.66-.66.22-.33.44-.66.66-.99ZM428.13,178.84c.22.44.44.88.66,1.33h-.99c.11-.44.22-.88.33-1.33ZM416.87,381.57c3.4-19.2,5.57-36.1,11.59-51.68,18.67-48.25,47.42-83.23,95.4-102.03,9.92-3.89,20.89-6.14,32.46-8.28,5.08-.44,10.16-.88,15.24-1.33,5.8-.06,14.6-1.21,19.21.66h.66c-.9,1.82-19.98,1.96-23.52,2.65-20.83,4.04-39.02,8.3-54.99,16.89-47.37,25.5-70.55,57.9-87.45,113.95-3.76,12.46-7.26,27.75-8.28,42.07-.44.22-.88.44-1.33.66h-.33c-.88-3.78.66-9.8,1.33-13.58ZM575.54,258.67c-.11.33-.22.66-.33.99-14.25,3.04-29.4,4.98-42.07,9.94-43.17,16.88-61.1,42.5-78.84,84.8-4.09,9.27-8.17,18.55-12.26,27.83-.33.11-.66.22-.99.33h-.33c-.81-3.89,12.86-33.57,15.24-39.09,14.45-33.5,37.41-61.3,71.22-75.19,9.58-3.94,20.92-5.7,32.13-7.95,4.86-.77,9.72-1.55,14.58-2.32h1.33c.11.22.22.44.33.66ZM413.23,227.87c-1.18-.56-.79-.07-1.33-1.33l1.33,1.33ZM405.28,210.31h.99v.99h-.99v-.99ZM400.31,224.56c-.11-.22-.22-.44-.33-.66.6.44.19.35.33.66ZM398.32,216.27h.99c.22.22.44.44.66.66-.44.33-.88.66-1.33.99h-.33v-1.66ZM396,179.51c.44.22.88.44,1.33.66-.11.33-.22.66-.33.99h-.99v-1.66ZM407.26,222.24c1.36.43,1.16.54,1.99,1.33-3.76,11.28-9.1,21.29-12.26,31.8h-1.99c.76-7.52,8.1-28.42,12.26-33.13ZM388.71,234.49l.66-.33h.33c.11.22.22.44.33.66-.44.22-.88.44-1.33.66v-.99ZM396.33,500.16h1.33c-2.65,9.38-5.3,18.77-7.95,28.16-9.01,29.55-19.4,53.39-35.44,75.19-4.42,6.01-14.3,19.92-20.87,22.86l-.66-.33c1.62-5.83,8.8-10.63,12.26-15.24,7.68-10.24,14.61-21.19,21.2-32.46,9.37-16.04,15.85-34.98,22.19-53.66,2.65-8.17,5.3-16.34,7.95-24.51ZM375.46,486.25h.99c-2.32,9.38-4.64,18.77-6.96,28.16-.33.22-.66.44-.99.66-1.03-1.63,5.36-25.98,6.96-28.82ZM370.49,239.79h.66c.22.33.44.66.66.99-.44.33-.88.66-1.33.99-.22-.11-.44-.22-.66-.33.22-.55.44-1.1.66-1.66ZM366.19,185.47c.68.65.36.12.66,1.33h-.99c.11-.44.22-.88.33-1.33ZM309.21,561.77c5.19-5.85,10.38-11.7,15.57-17.56,12.25-17.28,20.42-38.9,26.83-61.94,11.57-41.6,12.28-91.9,21.2-136.48,2.65-13.26,4.87-25.68,7.95-37.76.97-3.79.91-8.59,2.98-11.26h.66c2.18,4.98-2.18,15.33-3.31,20.54-2.76,17.11-5.52,34.23-8.28,51.34-2.65,21.97-5.3,43.95-7.95,65.92-10.31,55.14-20.62,110.58-61.61,134.82h-1.33c.95-3.15,5.13-5.46,7.29-7.62ZM133.65,518.05h.99c6.51,6.4,13.03,12.81,19.54,19.21,29.22,23.27,78.07,59.93,132.5,38.43.22.11.44.22.66.33-1.07,3.59-7.45,4.09-10.93,5.3-10.61,3.67-27.69,6.77-41.74,3.64-34.98-7.78-57.18-23.64-80.49-42.4-6.85-7.62-13.69-15.24-20.54-22.86v-1.66ZM34.6,356.06c5.51,1.78,17,23.05,20.54,28.82,17.64,28.78,36.94,59.38,49.36,92.75-.11.33-.22.66-.33.99-.55-.11-1.1-.22-1.66-.33-18.24-28.95-31.71-62.49-50.35-90.76-2.9-4.39-18.56-27.23-17.56-31.47ZM61.1,487.57c-9.4-16.7-18.9-33.93-27.83-51.34-1.88-3.66-9.98-15.24-9.61-18.22,5.01,1.57,12.29,16.04,15.24,20.87,12.03,22.52,24.07,45.05,36.11,67.58-2.98,1.7-11.99-15.46-13.91-18.88ZM112.45,570.05c-6.3-8.33-21.57-26.85-23.85-37.43-.22-.93-.06-.74.33-1.66,5.47,3.29,17.85,24.74,22.53,31.14,14.51,19.83,32.24,39.13,53.33,52.34,10.77,6.75,22.73,12.54,36.11,16.56,81.08,24.35,144.83-38.13,159-96.39.66-.22,1.33-.44,1.99-.66,1.79,9.26-14.56,37.86-18.88,44.39-21.87,33.03-43.23,52.45-89.77,61.28-9.46,1.8-23.24,2.32-33.13.33-50.94-10.24-81.52-35.33-107.66-69.89ZM308.55,641.93v.33c-2.51,3.81-9.79,5.08-14.24,6.96-14.45,6.09-31.22,7.95-52.67,7.95-4.97-.22-9.94-.44-14.91-.66h-.66v-.99c9.27.11,18.55.22,27.83.33,6.29-.55,12.59-1.1,18.88-1.66,9.4-1.97,17.65-5.25,25.51-8.61,2.87-1.21,5.74-2.43,8.61-3.64h1.66ZM166.11,705.2c-6.66,1.66-31.69-12.32-38.43-14.91-.11-.44-.22-.88-.33-1.33.33-.33.66-.66.99-.99,6.73,2.54,13.47,5.08,20.21,7.62,5.85,2.76,11.7,5.52,17.56,8.28v1.33ZM260.85,678.04c-9.8,2.47-31.99.68-40.74-.99-33.26-6.38-60.85-15.61-86.79-28.82-6.53-3.33-28.95-14.12-30.81-20.21,4.58.61,8.1,5.44,11.59,7.62,5.63,3.2,11.26,6.4,16.89,9.61,20.52,11.97,46.28,20.06,71.55,26.5,10.54,2.69,21.89,4.42,34.12,4.97,8.06.22,16.12.44,24.18.66v.66ZM293.97,669.76c-.33-.33-.66-.66-.99-.99,1.97-2.07,5.69-2.16,8.61-3.31,8.39-3.75,16.78-7.51,25.18-11.26,18.32-10.87,31.84-25.41,44.06-42.4h.99c-1.39,7.47-8.46,13.66-12.59,18.88-15.2,19.23-39.62,30.33-65.26,39.09ZM389.04,646.24c-15.5,26.44-34.16,50.15-63.27,62.94-5.27,2.32-11.18,5.64-17.89,6.29-.72-.68-.64-.45-.99-1.66,5.74-2.21,11.48-4.42,17.23-6.63,8.73-3.84,16.69-9.93,23.85-15.57,16.84-13.28,30.04-34.34,41.41-53,4.2-7.51,8.39-15.02,12.59-22.53.33.22.66.44.99.66-1.52,10.39-9.15,21.35-13.91,29.48ZM400.97,482.27c-.64.99-.06.56-1.33.99h-.33c-1.71-6.54,1.71-15.38,2.98-21.2,3.09-15.79,6.18-31.58,9.28-47.37,1.38.43,1.05.17,1.66,1.33-.99,6.29-1.99,12.59-2.98,18.88-3.21,14.84-3.6,34.95-9.28,47.37ZM447.68,520.7c-7.84,19.69-16.31,38.26-25.51,56.31-2.34,4.58-6.98,17.69-10.6,20.21-.33-.22-.66-.44-.99-.66,1.17-11.47,10.25-25.27,14.58-35.11,9.94-21.53,19.88-43.07,29.81-64.59h1.33c.77,4.24-6.75,19.18-8.61,23.85ZM441.05,421.32c-.22.11-.44.22-.66.33h-.99c.51-5.25,4.66-9.71,6.96-13.58,6.73-11.35,13.31-22.48,20.21-33.46,20.91-33.31,43.95-68.72,81.49-85.13,8.93-3.9,18.5-6.69,29.15-8.94,5.74-.55,11.48-1.1,17.23-1.66,62.29-.15,104.67,31.83,131.84,66.91,9.48,12.24,20.32,24.22,27.49,38.76v1.33h-.99c-6.96-10.16-13.91-20.32-20.87-30.48-17.52-23.27-41.79-46.61-69.89-58.96-10.84-4.76-22.31-8.76-35.11-11.59-14.58-3.23-36.08-3.28-50.35,0-54.54,12.53-77.5,48.65-105.01,87.78-9.93,14.12-24.36,31.88-30.48,48.69ZM678.56,333.54c-.41,7.11-8.6,8.66-15.9,6.63-5.96-2.43-11.93-4.86-17.89-7.29-10.26-3.98-21.08-5.57-33.46-7.62-9.43-1.56-26.78,1.9-30.14-5.63-4.72-11.58,17.87-12.04,25.18-14.58,30.42-.05,62.52,8.8,72.21,28.49ZM679.88,377.59c-3.64-2.76-7.29-5.52-10.93-8.28-7.99-5-17.46-9.21-27.16-12.26-83.27-26.12-133.58,51.31-162.98,96.39h-1.33c.87-7.97,16.54-27.59,21.2-34.12,17.88-25.05,39.9-51.28,69.56-64.26,6.33-2.77,13.25-4.91,20.54-6.63,3.97-.55,7.95-1.1,11.93-1.66,28.96-.06,46.99,6.24,64.59,16.89,5.84,3.54,12.44,7.07,15.9,12.92-.64.79-.2.55-1.33.99ZM770.32,500.82h-.99c-6.69-5.26-15.92-24.85-20.87-33.13-15.24-25.49-30.31-56.7-53.33-74.53.11-.55.22-1.1.33-1.66,6.62,2.39,16.49,15.59,20.87,21.2,20.26,25.98,39.53,55.11,53.99,86.79v1.33ZM781.25,444.84c-3.32-2.42-15.81-29.69-16.23-35.11h.99c4.19,3.41,13.66,27.54,16.23,34.12-.33.33-.66.66-.99.99ZM750.11,331.22c-7.58-9.79-17.67-19.95-27.49-27.49-4.97-3.64-9.94-7.29-14.91-10.93.22-.33.44-.66.66-.99,10.02,2.83,22.55,16.26,29.48,23.19,24.89,24.89,44.37,57.46,61.28,90.1l-.33.66h-.99c-5.75-7.8-9.84-16.97-14.91-25.51-10.02-16.89-20.96-33.75-32.79-49.03ZM813.71,500.82c-2.81.82-4.56-5.22-5.96-7.95-5.19-9.83-10.38-19.66-15.57-29.48h.99c8.07,6.04,17.77,25.76,20.54,37.1v.33ZM814.37,291.47v-.33c.22-.33.44-.66.66-.99h.66c-.51,1.39.07.82-1.33,1.33ZM815.7,230.19c-.22.11-.44.22-.66.33h-.99c.22-.55.44-1.1.66-1.66h.99v1.33ZM820.34,339.83c-.22-.44-.44-.88-.66-1.33h1.33c-.22.44-.44.88-.66,1.33ZM824.31,303.73l-.33-.33.33-.66c.22.11.44.22.66.33-.22.22-.44.44-.66.66ZM825.3,259.67h1.33c-.27,1.46-.19,1.23-.99,1.99-.69-.94-.46-.66-.33-1.99ZM826.96,408.4c-.22.11-.44.22-.66.33h-.99c.11-.55.22-1.1.33-1.66h1.33v1.33ZM826.3,346.79c-.66-.83-.87-2.62-.99-3.98.44.11.88.22,1.33.33.11,1.1.22,2.21.33,3.31l-.66.33ZM827.29,242.11c-1.19.09-.38.36-.99-.66h.66l.33.33v.33ZM855.78,562.1c-5.37-6.88-27.23-32.73-27.83-41.08,4.91,1.01,8.07,10.45,10.6,14.24,7.95,10.49,15.9,20.98,23.85,31.47,11.75,14.77,25.73,30.54,40.41,42.4,5.3,5.08,10.6,10.16,15.9,15.24,15.18,12.03,31.82,25.07,51.34,32.46l.33.99c-.22.22-.44.44-.66.66-12.48-2.29-24.05-12.28-33.46-18.55-30.75-20.48-57.99-49-80.49-77.84ZM992.92,713.82c-7.2.92-16.33-3.62-22.53-5.63-19.9-6.46-41.82-15.81-53.33-30.81.33-.33.66-.66.99-.99,7.95,5.19,15.9,10.38,23.85,15.57,14.13,8.27,33.68,14.86,50.68,19.21.51,1.04.64,1.36.33,2.65ZM1092.29,672.41c-20.41,4.66-48.55,5.85-70.56,1.99-5.96-.99-11.93-1.99-17.89-2.98-.44-.33-.88-.66-1.33-.99.44-.55.88-1.1,1.33-1.66,20.86,1.61,44.88,7.61,68.9,3.98,5.74-.55,11.48-1.1,17.23-1.66h2.32v1.33ZM1129.73,665.45c-3.2.44-6.4.88-9.61,1.33h-.66c.11-.55.22-1.1.33-1.66,13.36-3.42,26.72-6.85,40.08-10.27h2.32c.11,1.32.22,2.65.33,3.98-3.34,2.64-27.01,5.14-32.79,6.63ZM1172.13,618.42c13.58-6.73,27.16-13.47,40.74-20.21,1.18.26.95.23,1.66.66v.33c-5.47,5.13-33.47,20.26-42.4,20.87v-1.66ZM1184.71,647.23h-1.66c2.56-7.66,32.46-15.14,40.74-19.88h.99c.22.33.44.66.66.99-6.43,6.51-31.16,14.03-40.74,18.88ZM1193.66,701.23c-.9-1.33-1.34-1.83-1.33-4.31,5.84-6.22,12.48-5.78,21.2-9.61,7.48-.17,19.41-1.37,21.86,3.64,2.95,7.97-32.8,12.95-41.74,10.27ZM1327.82,666.45c-10.59-4.09-22.13-7.07-33.79-9.61-19.81-4.31-40.11.72-58.63,1.33-.11-.22-.22-.44-.33-.66,3.85-3.89,19.94-3.43,27.16-4.64,32.19-5.4,57.47,8.8,78.51,16.89.11.66.22,1.33.33,1.99-4.86-.46-9.03-3.67-13.25-5.3ZM1355.64,720.11c-.22-.11-.44-.22-.66-.33v-1.66c1.23.55.78.13,1.32,1.33-.22.22-.44.44-.66.66ZM1439.45,856.26h-.66c-.22-.44-.44-.88-.66-1.33h.99c.22.22.44.44.66.66-.11.22-.22.44-.33.66ZM1442.76,797.62c-6.11-3.21-10.36-9.38-15.57-13.58-14.23-11.47-26.06-25.64-40.41-37.1-3.17-2.53-16.28-12.7-15.9-16.23,5.24,1.35,9.37,6.6,13.25,9.61,15.5,12,26.67,28.27,41.74,40.41,3.71,2.99,16.41,12.34,17.56,16.56-.22.11-.44.22-.66.33ZM1479.53,865.86c-.33-.11-.66-.22-.99-.33.11-.55.22-1.1.33-1.66h1.33c.11.55.22,1.1.33,1.66-.33.11-.66.22-.99.33ZM1479.2,801.6v-1.33c.22-.11.44-.22.66-.33.33.33.66.66.99.99-.7.43-.47.42-1.66.66ZM1461.31,749.59c-15.36-7.83-28.95-18.33-42.4-28.16-3.68-2.69-11.4-5.68-12.92-10.27,6.89.42,13.22,7.45,18.22,10.6,12.41,7.81,41.51,31.34,56.98,32.13.22.33.44.66.66.99-2.68,2.43-17.56-3.78-20.54-5.3ZM1489.8,892.03h-1.32c.11-.22.22-.44.33-.66h.66c.11.11.22.22.33.33v.33ZM1495.43,883.75c.11-.22.22-.44.33-.66.99.64.56.06.99,1.33-.44-.22-.88-.44-1.32-.66ZM1497.75,818.82c-.11.11-.22.22-.33.33-.33-.33-.66-.66-.99-.99.44.11.88.22,1.33.33v.33ZM1497.09,799.94h-.33c-.22-.11-.44-.22-.66-.33.11-.44.22-.88.33-1.33,1.39.51.82-.07,1.33,1.33-.22.11-.44.22-.66.33ZM1508.35,865.2c-.55.44-1.1.88-1.66,1.33h-.33c.22-.55.44-1.1.66-1.66h1.33v.33ZM1511,842.34h-.33c-.11-.55-.22-1.1-.33-1.66.22-.22.44-.44.66-.66.44.11.88.22,1.33.33.11.33.22.66.33.99-.75.62-.45.62-1.66.99ZM1516.96,863.87c-.33-.22-.66-.44-.99-.66.22-.66.44-1.33.66-1.99h1.66c.11.77.22,1.55.33,2.32-.55.11-1.1.22-1.66.33ZM1526.9,904.95c-.33.22-.66.44-.99.66v-.99h.99v.33ZM1529.55,820.15l-1.32.66c-.22-.11-.44-.22-.66-.33.22-.55.44-1.1.66-1.66h1.32v1.33ZM1530.21,801.93c-.33.11-.66.22-.99.33-.65-.87-.58-.83-.33-1.99h1.33v1.66ZM1545.78,872.82c.11-.44.22-.88.33-1.33h.99c-.51,1.39.07.82-1.32,1.33ZM1552.74,809.55c.11-.22.22-.44.33-.66.99.64.56.06.99,1.33-.44-.22-.88-.44-1.32-.66ZM1556.38,804.58h-.33c.64-2.02,1.86-2.21,3.31-3.31,1.19.08-.23.76-.66.99-.77.77-1.55,1.55-2.32,2.32ZM1559.36,807.23c.11-.22.22-.44.33-.66h.99c.68.98-.3.56-1.32.66ZM1571.29,742.97c-2.94,18.31-5.66,32.46-11.59,46.71-1.81,4.34-3.9,12.63-8.28,14.24.52-4.27,3.17-7.13,4.64-10.6,2.65-7.62,5.3-15.24,7.95-22.86,1.88-8.94,3.75-17.89,5.63-26.83.33-3.97.66-7.95.99-11.93h1.32c-.22,3.75-.44,7.51-.66,11.26ZM1572.28,869.51c.11-.11.22-.22.33-.33h.33c.11.33.22.66.33.99-.33-.22-.66-.44-.99-.66ZM1573.94,866.52c-.22.11-.44.22-.66.33h-.33c.03-1.26-.09-.57.33-1.66.22.33.44.66.66.99v.33ZM1564.33,655.18c-10.53,33.42-15.65,98.65-55.32,100.7-.11-.11-.22-.22-.33-.33v-.99c15.5-8.09,21.18-9.01,30.14-24.18,6.09-10.3,8.49-22.8,11.93-35.78,7.01-26.47,12.6-58.1,28.49-76.19h1.32c-2.21,4.2-4.42,8.39-6.62,12.59-3.2,8.06-6.4,16.12-9.61,24.18ZM1581.22,808.56c-.55.33-1.1.66-1.66.99-.22-.11-.44-.22-.66-.33.54-2.09,1.52-2.28,2.65-3.64.86,1.05.18,1.5-.33,2.98ZM1581.22,690.63c-1.88,8.94-3.75,17.89-5.63,26.83v.66h-1.32c.31-17.16,10.82-57.57,18.88-66.25.33.22.66.44.99.66-1.77,4.53-3.53,9.05-5.3,13.58-2.54,8.17-5.08,16.34-7.62,24.51ZM1589.17,605.5c-.33.11-.66.22-.99.33-.22-.22-.44-.44-.66-.66,8.63-21.79,19.53-41.41,32.46-58.96,7.51-8.61,15.02-17.23,22.53-25.84h1.33c-.89,4.64-15.66,20.01-19.21,24.84-11.91,16.24-28.53,40.16-35.44,60.29ZM1622.63,600.2c-5.58,10.06-12.98,20.38-16.56,32.13l-.99.66c-2.48-3.99,13.7-30.42,16.56-33.79h.33c.22.33.44.66.66.99ZM1589.84,800.27c.22.44.44.88.66,1.33h-.99v-1.33h.33ZM1590.83,828.76l-1.32-.66c.11-.11.22-.22.33-.33h.99v.99ZM1598.45,816.51v-.33c.11-.22.22-.44.33-.66h.33c.11.33.22.66.33.99h-.99ZM1600.77,822.8c.11-.11.22-.22.33-.33h.33c.22.33.44.66.66.99l-1.32-.66ZM1603.09,873.48c-.11-.22-.22-.44-.33-.66.6.44.19.35.33.66ZM1607.06,718.79c-4.35,16.79-6.39,34.68-11.26,50.35-1.49,4.8-1.87,11.37-5.3,14.24-1.45-2.1,3-17.03,3.97-20.54,5.53-19.91,6.98-45.21,15.24-63.6,2.18,1.08-1.74,16.03-2.65,19.54ZM1615.67,797.29v-1.33h.99c.22.22.44.44.66.66-.65.53-.45.45-1.66.66ZM1627.93,643.59c-4.31,13.03-8.61,26.06-12.92,39.09-.33.22-.66.44-.99.66-1.62-2.4,1.67-10.7,2.65-13.91,3.13-10.24,9.75-32.55,15.9-39.09h.33c.75,3.91-3.56,9.68-4.97,13.25ZM1639.52,617.75c-.22.22-.44.44-.66.66h-.33c.89-5.88,7.18-12.08,10.27-16.56h1.66c-.73,2.69-8.78,14.5-10.93,15.9ZM1671.66,539.91c-12.77,9.6-24.7,21.51-33.13,35.44h-1.33c-.84-6.52,5.79-12.51,8.94-16.56,6.95-8.91,16.46-16.77,26.17-22.86,4.97-2.87,9.94-5.74,14.91-8.61.44.11.88.22,1.32.33-1.11,3.53-13.49,9.7-16.89,12.26ZM1709.09,481.28c-3.35,3.7-12.96,4.38-17.89,6.29-6.73,3.09-13.47,6.18-20.21,9.28-3.97,2.48-8.66,7.73-13.58,8.61-.11-.11-.22-.22-.33-.33.9-2.81,4.18-4,6.29-5.63,7.56-5.83,16.29-10.68,26.5-13.91,5.85-1.66,11.7-3.31,17.56-4.97.55.11,1.1.22,1.66.33v.33ZM1818.73,505.79c-.22.33-.44.66-.66.99-17.43-1.22-40.79-4.6-59.29-.99-9.61,1.99-19.21,3.98-28.82,5.96-5.41,1.55-10.82,3.09-16.23,4.64-.11-.11-.22-.22-.33-.33.11-.33.22-.66.33-.99,1.9-3.26,7.85-3.85,11.59-5.3,9.74-3.77,21-6.35,32.46-8.61,6.07-.55,12.15-1.1,18.22-1.66,11.07.01,34.45.81,41.41,4.64.44.44.88.88,1.32,1.33v.33ZM1731.94,471.34c7.78-3.76,17.61-5.27,27.49-6.96,4.09-.33,8.17-.66,12.26-.99,6.51-.06,16.6-1.46,21.86.66h.66c-1.47,2.83-13.33.28-17.89.99-15.69,2.47-30.74,2.16-42.73,7.62-1.76-.31-1.17.29-1.66-1.33ZM1846.23,473.66c-11.81-3.51-25.73-6.42-39.42-6.96-.49-1.03-.58-1.09-.33-2.32,18.78.15,38.2,5.12,52.01,11.59.11.33.22.66.33.99-2.39,1.5-9.56-2.41-12.59-3.31ZM1860.14,454.78c-.03,1.26.09.57-.33,1.66-5.3-1.44-10.6-2.87-15.9-4.31-8.72-1.1-17.45-2.21-26.17-3.31-19.46-3.2-46.12-1.83-63.93,1.33-12,2.13-22.81,2.53-33.79,5.3-49.4,12.48-79.28,32.78-105.34,68.24-20.16,27.43-38.91,57.47-53.33,90.43-15.15,34.62-26.91,104.51-84.14,88.44-9.17-2.57-17.6-5.98-25.84-9.61-18.65-8.22-35.33-20.28-51.68-31.14-.11-.33-.22-.66-.33-.99.11-.22.22-.44.33-.66,7.23.54,15.03,7.6,20.54,10.93,17.02,10.3,54.71,36.58,83.48,27.49,31.33-9.9,36.64-43.94,48.69-73.21,12.56-30.51,29.01-59.54,47.04-85.13,27.4-38.9,56.93-69.48,107.99-85.13,13.82-4.24,29.17-5.55,44.39-8.28,7.84-.66,15.68-1.33,23.52-1.99,31.8.06,62.34.16,84.8,9.94ZM1814.76,340.49h-.66v-.99h.66v.99ZM1818.4,341.82h-.33v-1.66h1.33c.11.33.22.66.33.99-.44.22-.88.44-1.33.66ZM1830.33,380.24c-.99-.96-.52-.33-.66-1.66h.99c.22.22.44.44.66.66-.33.33-.66.66-.99.99ZM1886.31,416.68l1.32.66v.33c-.22.11-.44.22-.66.33l-.66-.33v-.99ZM1883.99,402.44h1.33v1.33c-.11.11-.22.22-.33.33h-.99v-1.66ZM1864.78,415.36v-1.66c.33.22.66.44.99.66-.33.33-.66.66-.99.99ZM1865.11,394.49h-.33c-.33-.44-.66-.88-.99-1.33,1.39.51.82-.07,1.32,1.33ZM1835.3,371.63h-.99v-1.66c.44.22.88.44,1.33.66-.11.33-.22.66-.33.99ZM1836.29,353.41c-.11-.33-.22-.66-.33-.99l.99.33c-.22.22-.44.44-.66.66ZM1847.55,340.16h-1.33v-1.33h1.33v1.33ZM1853.85,358.05v-.66h1.33c-.44.22-.88.44-1.33.66ZM1870.08,336.19l-1.32-.66c.11-.22.22-.44.33-.66.33.11.66.22.99.33v.99ZM1889.62,342.15v-.66h.99c-.6.67,0,.25-.99.66ZM1893.26,351.76h-1.32v-.33c.11-.22.22-.44.33-.66.11.11.22.22.33.33l.66.33v.33Z"/>
  <path class="st0" d="M1424.21,245.76c4.85,15.97,12.66,27.98,21.86,39.42,20.89,25.97,76.04,49.62,125.54,37.1,31.2-7.89,52.13-23.75,67.58-47.37,3.45-5.27,7.69-11.73,9.28-18.55-2.05-.46-2.91-.86-3.64-2.65-.11-1.66-.22-3.31-.33-4.97.55-.55,1.1-1.1,1.66-1.66,1.88-.11,3.75-.22,5.63-.33.88-3.64,1.77-7.29,2.65-10.93-.99-.66-1.99-1.33-2.98-1.99-1.73-3.81,3.57-7.25,4.31-8.94.22-5.52.44-11.04.66-16.56h-.66c-1.37,7.11-11.87,27.14-17.89,28.16-.66-.22-1.32-.44-1.99-.66-1.26-5.14,14.67-31.17,18.88-32.79,2.13-4.67-.46-12.71-.99-17.56-.33-.22-.66-.44-.99-.66-4.95,4.8-7.31,11.35-10.93,17.56-6.18,9.94-12.37,19.88-18.55,29.81-3.25,5.32-6.36,15.37-11.93,18.22-.99.11-1.99.22-2.98.33-.22-.33-.44-.66-.66-.99-1.63-4.71,7.17-16.76,9.28-20.21,7.29-12.37,14.58-24.73,21.86-37.1,3.86-5.41,7.73-10.82,11.59-16.23,2.72-4.58-13.16-25.61-15.9-29.15-21.2-27.35-57.27-41.54-106.66-40.74-8.39,1.66-16.78,3.31-25.18,4.97-12.17,3.8-23.97,8.88-33.46,15.57-26.78,18.88-60.31,68.69-45.05,118.92ZM1619.98,253.71c3.79-.14,5.51.5,6.96,2.65,1.09,4.98-1.14,9.49-4.64,10.93h-3.31c-.99-.88-1.99-1.77-2.98-2.65-1.15-5.48,1.2-8.42,3.98-10.93ZM1633.23,170.89c.88-.55,1.77-1.1,2.65-1.66,1.1.11,2.21.22,3.31.33.33.66.66,1.33.99,1.99-.1,2.51-.85,3.83-2.65,4.64-.99.11-1.99.22-2.98.33-.44-.66-.88-1.33-1.33-1.99v-3.64ZM1553.73,245.09c-.44-.77-.88-1.55-1.32-2.32-1.11-5.18,13.39-26.11,17.23-29.15h1.99c.44.66.88,1.33,1.33,1.99-.86,9.15-12.37,24.07-17.89,29.48h-1.33ZM1595.8,261.32c-.44-.66-.88-1.33-1.33-1.99.22-1.21.44-2.43.66-3.64.66-.44,1.32-.88,1.99-1.33,6.91-.42,5.42,8.96-1.33,6.96ZM1621.31,193.09c.44.44.88.88,1.33,1.33,1.12,6.75-5.4,13.57-7.95,18.55-8.06,13.91-16.12,27.83-24.18,41.74-3.43,5.64-5.9,13.91-12.59,16.23-.88-.66-1.77-1.33-2.65-1.99-.79-5.5,8.14-16.89,10.93-21.2,10.66-16.47,20.21-41.43,33.46-54.66h1.66ZM1611.04,164.93c.99-.55,1.99-1.1,2.98-1.66.88.22,1.77.44,2.65.66.66.66,1.32,1.33,1.99,1.99.11,1.1.22,2.21.33,3.31-1.39,1.29-2.29,2.2-3.97,3.31h-1.66c-.99-.99-1.99-1.99-2.98-2.98.22-1.55.44-3.09.66-4.64ZM1598.78,201.7c-2.67.04-3.83-.51-4.64-2.32v-3.64c.69-1.98,1.56-2.47,2.98-3.64,7.96-.43,5.34,7.54,1.66,9.61ZM1595.14,159.96c1.63-.04,2.5.01,3.31.66,5.75,3.27-1.32,11.55-4.31,12.92-.66-.11-1.33-.22-1.99-.33-.66-.55-1.33-1.1-1.99-1.66-1.09-5.77,2.48-8.46,4.97-11.59ZM1592.82,215.94c1.56,4.19-3.4,8.88-4.97,11.59-4.41,7.63-14.59,28.55-20.87,32.79-.77-.11-1.55-.22-2.32-.33-.22-.44-.44-.88-.66-1.33-1.67-4.39,3.32-9.82,4.97-12.59,6.47-10.86,11.92-21.96,19.21-31.8,2.62-.15,3.8-.03,4.64,1.66ZM1577.25,196.4c-.77.66-1.55,1.33-2.32,1.99-.99.11-1.99.22-2.98.33-.77-.99-1.55-1.99-2.32-2.98.11-.88.22-1.77.33-2.65.66-.77,1.33-1.55,1.99-2.32,2.42-.02,3.51.3,4.97.99.11,1.55.22,3.09.33,4.64ZM1570.29,164.93h2.65c4.39,3.99,3.75,13.36-1.66,15.9-1.1-.22-2.21-.44-3.31-.66-3.7-5.28-1.59-11.92,2.32-15.24ZM1552.41,210.97c1.91,4.21-1.1,7.61-2.98,9.28-2.53.52-4.4,0-6.29-.66-1.28-1.89-3.14-5.62-1.32-8.61l3.31-3.31c3.85-.15,6.17.75,7.29,3.31ZM1537.5,153.01c3.62-.07,4.73.59,6.63,1.99.48,1.84.89,3.56,0,5.3-.8,1.72-1.8,2.01-3.31,2.98-3.27-.32-4.81-1.88-5.96-4.31-.05-3.62.87-4.33,2.65-5.96ZM1530.21,271.59c.84-2.05,1.96-2.5,3.64-3.64,2.9-.01,4.18.45,5.96,1.33.67,1.57,2,3.7.99,5.96-.84,2.43-2.28,3.39-4.64,4.31-4.19-.12-7.44-3.37-5.96-7.95ZM1503.05,238.47c-1.78,8.22-10.47,7.51-15.57,3.31-1.89-6.6.08-10.04,4.64-12.92,6.67-.32,12.52,2.26,10.93,9.61ZM1491.79,169.9c12.74-.61,12.42,14.24,3.31,16.56-10.71,2.73-12.97-11.37-3.31-16.56Z"/>
  <path class="st0" d="M1918.77,216.61c.22,3.69,1.66,5.11,3.64,6.96.77.11,1.55.22,2.32.33v-11.59c-.99.22-1.99.44-2.98.66-1.8.86-1.99,2.03-2.98,3.64Z"/>
  <path class="st0" d="M1611.04,344.47c-.51,1.78-.93,3.6,0,5.3.75,1.62,1.62,1.99,3.31,2.65,3.31-.2,4.06-1.77,4.97-4.31-.08-2.4-.56-3.11-1.32-4.64-1.32-.33-2.65-.66-3.98-.99-.99.66-1.99,1.33-2.98,1.99Z"/>
  <path class="st0" d="M1643.83,320.95c-1.32.44-2.65.88-3.97,1.33-.66,1.1-1.33,2.21-1.99,3.31.37,3.07,1.57,4.1,2.98,5.96,2.52.67,3.99.42,6.29-.33,1.21-1.77,2.96-4.6,1.32-7.29-.88-1.91-2.33-2.53-4.64-2.98Z"/>
  <path class="st0" d="M1642.84,110.6c-1.95,8.45,14.53,6.44,10.6-4.31-1.41-.91-2.54-1.66-4.64-1.99-3.12,1.55-5.44,2.15-5.96,6.29Z"/>
  <path class="st0" d="M1483.84,53.3c2.74-3.58,2.89-9.65-3.98-9.28-.55.22-1.1.44-1.66.66-.66,1.1-1.33,2.21-1.99,3.31.06,2.33.49,3.03.99,4.64,2.41,1.5,3.76,1.59,6.63.66Z"/>
  <path class="st0" d="M1648.47,27.79c.66-1.1,1.32-2.21,1.99-3.31-.08-2.72-.75-4.71-2.65-5.63-.86-.74-1.68-.94-3.31-.99-3.97,2.49-5.45,5.97-2.32,10.27,2.52.67,3.99.42,6.29-.33Z"/>
  <path class="st0" d="M1677.29,307.04c-2.33,1.41-4.46,7.22,1.32,5.96,1.91-2.38,2.34-4.84-1.32-5.96Z"/>
  <path class="st0" d="M1518.29,26.14c5.28-2.3,4.72-8.72,1.66-12.59-1.55-.22-3.09-.44-4.64-.66-3.3,1.93-7.38,4.14-5.63,9.94,1.11,3.09,5.15,5.55,8.61,3.31Z"/>
  <path class="st0" d="M1557.37,88.74c.97-3.85-.24-5.8-2.65-7.95-1.1-.11-2.21-.22-3.31-.33-2.41,1.6-2.81,2.43-4.31,4.97.19,2.93,1.07,3.93,2.32,5.63,3.66.98,6.15.28,7.95-2.32Z"/>
  <path class="st0" d="M1270.51,222.57c2.16-.92,3.33-1.85,3.64-4.64.49-1.42-.35-2.74-.99-3.98-.88-.11-1.77-.22-2.65-.33-.33.22-.66.44-.99.66-1.34,2.08-2.18,4.68-.99,7.62.66.22,1.33.44,1.99.66Z"/>
  <path class="st0" d="M1217.51,301.74c-1.69-1.21-2.52-2.02-5.63-1.99-.55.22-1.1.44-1.66.66-1.57,2-3.6,5.42-.99,7.95.67,1.16,1.43,1.43,2.65,1.99,2.33-.06,3.03-.49,4.64-.99,1.73-2.6,2.05-4.34.99-7.62Z"/>
  <path class="st0" d="M1215.85,223.23c.88.66,1.77,1.33,2.65,1.99,1.32-.33,2.65-.66,3.98-.99,1.12-1.59,1.92-2.85,2.65-4.97-.22-.99-.44-1.99-.66-2.98-1.1-.44-2.21-.88-3.31-1.33-3.38,2.02-5.44,2.62-5.3,8.28Z"/>
  <path class="st0" d="M1210.55,362.69c-1.21-.11-2.43-.22-3.64-.33-4.89,3.09-5.68,9.02.66,11.26,2.79-.22,3.66-1.11,5.3-2.32,1.15-4.09.13-6.4-2.32-8.61Z"/>
  <path class="st0" d="M1210.22,116.24c10.18-2.15,10.68-24.37-2.65-23.85-9.08,5.4-9.35,26.38,2.65,23.85Z"/>
  <path class="st0" d="M1197.96,343.14c1.32.46,2.62-.23,3.98-.66.55-.88,1.1-1.77,1.66-2.65-.22-1.32-.44-2.65-.66-3.98-.66-.77-1.33-1.55-1.99-2.32-1.32-.11-2.65-.22-3.98-.33-.55.22-1.1.44-1.66.66-.55.99-1.1,1.99-1.66,2.98.44,1.66.88,3.31,1.33,4.97.99.44,1.99.88,2.98,1.33Z"/>
  <path class="st0" d="M1232.08,167.58c1.38-1.78,3.49-4.94,1.66-7.95-.95-2.13-2.75-3.12-5.63-3.31-3.13,1.7-3.6,2.16-5.3,5.3.22,3.18,1.28,4.42,2.65,6.29,2.58.69,4.28.43,6.63-.33Z"/>
  <path class="st0" d="M1221.81,258.01c-.44-.55-.88-1.1-1.33-1.66-.77-.11-1.55-.22-2.32-.33-3.42,2.39-4.59,5.18-2.98,9.94.44.22.88.44,1.33.66,4.01,1.64,6.45-4.84,5.3-8.61Z"/>
  <path class="st0" d="M1242.02,396.81c3.57.76,4.97-.41,6.96-1.99.88-2.97.78-6.17-1.66-7.62-1.05-1.05-2.12-1.35-4.31-1.33-.55.22-1.1.44-1.66.66-2.57,3.34-3.17,7.65.66,10.27Z"/>
  <path class="st0" d="M1242.35,212.96c.22-.88.44-1.77.66-2.65-.22-.55-.44-1.1-.66-1.66-1.2-.74-1.68-1.19-3.64-1.33-.55.22-1.1.44-1.66.66-.94,1.45-1.59,2.16-1.66,4.64.66.55,1.33,1.1,1.99,1.66,2.14.95,3.73-.4,4.97-1.33Z"/>
  <path class="st0" d="M1238.05,364.34c1.21-.22,2.43-.44,3.64-.66,1.28-1.75,2.81-4.3,1.33-6.96-.55-.77-1.1-1.55-1.66-2.32-1.1-.22-2.21-.44-3.31-.66-1.87,1.04-3.07,1.35-4.31,2.98-.49,2.44.03,4.07.66,5.96,1.21.84,1.69,1.41,3.64,1.66Z"/>
  <path class="st0" d="M1195.65,398.79c1.84.42,3.47.42,4.64-.66,1.35-.76,1.52-1.71,2.32-2.98-.09-2.82-.96-4.41-2.98-5.3-.99-.11-1.99-.22-2.98-.33-.55.22-1.1.44-1.66.66-.99,1.42-1.76,2.34-1.99,4.64.95,1.71,1.18,2.83,2.65,3.98Z"/>
  <path class="st0" d="M1239.37,236.81c.88-.99,1.77-1.99,2.65-2.98-.22-.77-.44-1.55-.66-2.32-.66-.11-1.33-.22-1.99-.33-.66.77-1.33,1.55-1.99,2.32-.11.77-.22,1.55-.33,2.32.33.33.66.66.99.99h1.33Z"/>
  <path class="st0" d="M1241.36,305.38c.99.22,1.99.44,2.98.66,2.38-1.05,3.5-1.68,4.64-3.98.1-3.3-.71-5.05-2.98-5.96-.88-.11-1.77-.22-2.65-.33-.55.22-1.1.44-1.66.66-2.34,3.07-2.8,5.75-.33,8.94Z"/>
  <path class="st0" d="M1245.66,272.92c2.05-1.17,3.04-2.64,2.98-5.96-.44-.22-.88-.44-1.33-.66-.66-.11-1.33-.22-1.99-.33-.44.66-.88,1.33-1.33,1.99-1.16,2.31.14,4.17,1.66,4.97Z"/>
  <path class="st0" d="M1162.19,77.48c4.81,1.08,6.21-1.01,7.95-3.98-.33-1.32-.66-2.65-.99-3.98-1.57-1.1-2.56-1.92-5.3-1.99-4.08,2.3-6.56,6.55-1.66,9.94Z"/>
  <path class="st0" d="M1110.84,201.7c11.81-2.74,13.41-28.96-2.65-28.49-2.87,1.64-5.34,2.79-6.96,5.63-4.33,7.63-1.15,25.35,9.61,22.86Z"/>
  <path class="st0" d="M1124.43,499.16c-.22.11-.44.22-.66.33-.68,1.04-1.3,1.76-.66,3.31.59.96.64.83,1.66,1.33,1.26-.88,2.55-1.6,1.66-3.64-.66-1.11-.52-.99-1.99-1.33Z"/>
  <path class="st0" d="M1111.18,108.29c15.55,3.37,24.63-34.59,4.64-34.12-2.98,1.54-5.8,2.66-7.62,5.3-4.48,6.48-7.03,26.65,2.98,28.82Z"/>
  <path class="st0" d="M1115.48,485.25c-.22-1.1-.44-2.21-.66-3.31-.44-.22-.88-.44-1.33-.66-.55-.11-1.1-.22-1.66-.33-2.15,1.71-3.64,2.69-3.98,6.29,2.24,4.04,6.41.87,7.62-1.99Z"/>
  <path class="st0" d="M1105.88,502.81c-.94,1.07-3.32,3.48-1.99,5.63,1.42,2.3,4.85-.8,5.3-1.99.11-.55.22-1.1.33-1.66-.55-.66-1.1-1.33-1.66-1.99h-1.99Z"/>
  <path class="st0" d="M1136.35,484.92c4.35-3.11,7.7-9.39,5.63-15.9-.88-.33-1.77-.66-2.65-.99-4.09,3.08-7.85,8.67-5.96,15.57.99.44,1.99.88,2.98,1.33Z"/>
  <path class="st0" d="M1161.53,393.16c-.02-2.43-.43-3.39-.99-4.97-1.57-1.1-2.56-1.92-5.3-1.99-2.78,1.3-6.7,4.21-3.98,8.61,2.76,4.46,8.57,2.24,10.27-1.66Z"/>
  <path class="st0" d="M1307.61,194.08c-.95,1.5-1.73,3.26-.99,5.63.33.55.66,1.1.99,1.66,3.23-.23,3.67-1.56,4.97-3.64-.25-2.07-.79-2.69-1.66-3.98-.66-.11-1.32-.22-1.99-.33l-1.32.66Z"/>
  <path class="st0" d="M1156.89,264.31c-1.88-.22-3.75-.44-5.63-.66-5.74,3.26-7.87,7.61-3.31,13.25,9.08,2.78,14.63-5.69,8.94-12.59Z"/>
  <path class="st0" d="M1165.5,341.82c-1.55-1.08-2.66-1.87-5.3-1.99-.88.66-1.77,1.33-2.65,1.99-1.24,1.23-1.72,3.75-.99,5.96.85,2.05,1.88,2.23,3.64,3.31,1.32-.33,2.65-.66,3.98-.99,2.02-2.68,2.57-4.59,1.33-8.28Z"/>
  <path class="st0" d="M1226.78,322.61c-.44.33-.88.66-1.33.99-1.92.96-3.1,4.37-1.66,6.63.7,1.5,1.52,1.95,2.98,2.65,1.55-.22,3.09-.44,4.64-.66,1.2-1.74,2.91-4.36,1.33-6.96-.66-.77-1.33-1.55-1.99-2.32-1.32-.11-2.65-.22-3.98-.33Z"/>
  <path class="st0" d="M1144.3,329.23c-.77-.11-1.55-.22-2.32-.33-1.27.84-1.94.86-2.65,2.32-1.22,2.61.5,4.94,1.99,5.96,1.54.24,2.16.05,3.64-.33.44-.77.88-1.55,1.33-2.32.08-2.94-.4-4.09-1.99-5.3Z"/>
  <path class="st0" d="M1143.64,162.94c22.03,9.04,45.29-41.9,15.57-41.08-10.57,4.8-17.31,9.26-20.87,20.87-2.45,8.01-.83,17.69,5.3,20.21Z"/>
  <path class="st0" d="M1314.23,216.27c.22.66.44,1.33.66,1.99,1.05.69,2.03,1.36,3.64.66,3.57-1.28,5.39-6.09,5.96-10.27-.64-1.55-.81-2.26-2.32-2.98-.66-.11-1.33-.22-1.99-.33-2.91,2.35-5.51,6.27-5.96,10.93Z"/>
  <path class="st0" d="M138.62,327.24c2.32-.29,2.9-.96,4.31-1.99,1.14-4.14.04-7.68-4.31-8.28-1.1.77-2.21,1.55-3.31,2.32-.53,2.16-.54,3.47,0,5.63,1.1.77,2.21,1.55,3.31,2.32Z"/>
  <path class="st0" d="M1284.42,242.77c-1.81,1.62-2.95,2.46-3.98,4.97.03,1.96.17,2.52,1.33,3.31,1.19.44,1.79.03,2.98-.33,1.86-2.52,2.72-4.21,1.33-7.62-.55-.11-1.1-.22-1.66-.33Z"/>
  <path class="st0" d="M1290.05,321.28c-1.1-.11-2.21-.22-3.31-.33-1.21.88-2.43,1.77-3.64,2.65-1.29,4.62.55,7.78,5.3,8.28,1.32-.88,2.65-1.77,3.97-2.65.51-1.78.93-3.6,0-5.3-.77-.88-1.55-1.77-2.32-2.65Z"/>
  <path class="st0" d="M1286.74,372.63c-1.95,2.75-1.98,4.72-.66,7.95,7.13,5.19,12.35-2.25,7.29-8.28-1.55-.22-3.09-.44-4.64-.66-.66.33-1.33.66-1.99.99Z"/>
  <path class="st0" d="M1233.74,268.28c-1.24-.87-1.36-1.27-3.64-1.33-2.79,2.6-4.62,6.52-4.31,11.26.33.33.66.66.99.99,5.98-.16,7.49-6.25,6.96-10.93Z"/>
  <path class="st0" d="M1301.98,357.72c2.71.72,4.85.46,7.29-.33,1.27-1.71,3.01-4.55,1.32-7.29-1.01-2.27-2.97-3.35-6.29-3.31-1.44.88-2.87,1.77-4.31,2.65-.43,1.55-.85,3.22-.33,4.97.77,1.1,1.55,2.21,2.32,3.31Z"/>
  <path class="st0" d="M1304.3,245.76c-2.36,3.72-7.29,9.14-7.95,13.58.33.33.66.66.99.99.55.11,1.1.22,1.66.33,3.64-3.08,7.86-7.77,7.29-13.91-.66-.33-1.33-.66-1.99-.99Z"/>
  <path class="st0" d="M1316.88,177.19c-.59-1.41-.64-1.96-1.99-2.65-.88-.11-1.77-.22-2.65-.33-1.49,1.22-2.38,1.8-3.31,3.64.44,1.44.88,2.87,1.32,4.31,3.95,1.15,6.42-.51,6.63-4.97Z"/>
  <path class="st0" d="M1324.83,378.59c.69-1.87-.73-3.7-1.66-4.97-1.55-.22-3.09-.44-4.64-.66-3.81,2.38-5.06,5.63-1.99,9.61,3.85,1.16,7.75.11,8.28-3.98Z"/>
  <path class="st0" d="M1316.22,259.67c-.22-1.1-.44-2.21-.66-3.31-.86-.43-1.15-.59-2.65-.66-2.88,2.3-6.19,4.18-6.29,9.28.66.66,1.33,1.33,1.99,1.99,4.2-.48,6.31-3.92,7.62-7.29Z"/>
  <path class="st0" d="M1310.92,299.75c-.66-.77-1.32-1.55-1.99-2.32-1.1-.11-2.21-.22-3.31-.33-.66.33-1.32.66-1.99.99-1.21,1.65-2.78,4.21-1.32,6.63.7,1.5,1.52,1.95,2.98,2.65,2.31-.04,3.12-.45,4.64-.99,1.13-1.73,2.3-4.28.99-6.63Z"/>
  <path class="st0" d="M1299,234.49c.33-.33.66-.66.99-.99.22-.44.44-.88.66-1.33-.88-.55-1.77-1.1-2.65-1.66-1.06,1.06-1.62,1.45-1.99,3.31l.99.66h1.99Z"/>
  <path class="st0" d="M1278.79,298.09c-.77-1.32-1.55-2.65-2.32-3.98-1.21-.22-2.43-.44-3.64-.66-1.32.88-2.65,1.77-3.98,2.65-.51,1.75-.98,3.67,0,5.3.7,1.5,1.52,1.95,2.98,2.65,3.31-.15,4.4-1.25,6.29-2.65.22-1.1.44-2.21.66-3.31Z"/>
  <path class="st0" d="M1271.83,235.82c-2.78,2.21-7.56,8.13-6.29,12.92.66,1.26.51,1.17,2.32,1.33,3.23-2.98,6.71-6.36,6.63-12.59-.11-.22-.22-.44-.33-.66-.77-.33-1.55-.66-2.32-.99Z"/>
  <path class="st0" d="M1257.92,331.22c1.84,1.85,4.26,1.14,6.63.33,1.1-1.59,1.97-3.2,2.32-5.63-.91-1.41-1.08-2.51-2.65-3.31-.91-.79-1.87-.99-3.64-.99-2.28,1.46-3.11,2.12-4.64,4.31-.07,2.73.37,4.28,1.99,5.3Z"/>
  <path class="st0" d="M1286.41,271.26c.22.22.44.44.66.66.55.11,1.1.22,1.66.33,1.42-1.35,2.17-2.25,2.98-4.31-.1-2.36-.59-2.92-2.65-3.31-1.44,1.31-2.62,1.8-2.98,4.31-.34.94-.16,1.46.33,2.32Z"/>
  <path class="st0" d="M1116.14,518.71c.95-1.26,1.62-1.65,1.99-3.64-.84-1.49-1.17-2.04-3.31-2.32-1.47,1.4-2.2,2.36-1.66,4.97,1.05.66,1.13.9,2.98.99Z"/>
  <path class="st0" d="M1258.58,117.23c9.45-3.42,13.52-23.31-.66-22.86-7.44,4.27-12.88,21.81.66,22.86Z"/>
  <path class="st0" d="M1269.85,358.71c2.79-.22,3.36-1.1,4.97-2.32,1.3-4.6-.39-7.9-5.96-7.62-1.59,1.13-2.6,1.55-2.98,3.98-1.05,2.88,2.08,4.83,3.98,5.96Z"/>
  <path class="st0" d="M1282.43,228.2l.33.99c.66.11,1.33.22,1.99.33,2.48-1.02,6.81-8.49.66-8.61-1.51,1.39-4.19,4.37-2.98,7.29Z"/>
  <path class="st0" d="M1290.05,204.35c.77-.77,1.55-1.55,2.32-2.32.74-1.72,0-3.68-.33-5.3-.44-.44-.88-.88-1.33-1.33h-1.99c-1.26,1.19-2.14,1.97-2.98,3.64.33,1.32.66,2.65.99,3.98,1.1.44,2.21.88,3.31,1.33Z"/>
  <path class="st0" d="M1252.62,248.07c.99.33,1.99.66,2.98.99,2.99-2.72,5.11-7.16,2.65-11.59-.77-.11-1.55-.22-2.32-.33-2.73,2.51-4.61,6.28-3.31,10.93Z"/>
  <path class="st0" d="M1277.8,171.56c4.33,1.07,7.9-2.43,5.96-6.29-.55-.66-1.1-1.33-1.66-1.99-.88-.11-1.77-.22-2.65-.33-3.42,2.02-4.14,3.63-2.65,7.95.33.22.66.44.99.66Z"/>
  <path class="st0" d="M1260.9,279.88c5.16-2.1,7.96-10.84,5.96-16.89-.44-.22-.88-.44-1.33-.66-.55-.11-1.1-.22-1.66-.33-2.95,2.99-6.18,9.84-6.96,14.58,1.02,2.04,1.67,2.53,3.98,3.31Z"/>
  <path class="st0" d="M1258.58,200.37c-2.05,1.6-3.62,2.23-3.98,5.63.33.66.66,1.33.99,1.99,3.05.61,4.26-.66,5.3-2.98-.11-1.21-.22-2.43-.33-3.64-.66-.33-1.33-.66-1.99-.99Z"/>
  <path class="st0" d="M723.61,528.65c-.82-1.37-.78-1.56-2.98-1.66-.22.11-.44.22-.66.33-.22.99-.44,1.99-.66,2.98l.66.33c1.1-.33,2.21-.66,3.31-.99.11-.33.22-.66.33-.99Z"/>
  <path class="st0" d="M1305.29,1040.1c-.88.66-1.77,1.33-2.65,1.99-1.02,3.85-.1,6.64,3.31,7.95,5.4.04,6.35-3.66,4.97-8.28-1.66-1.08-2.64-1.72-5.63-1.66Z"/>
  <path class="st0" d="M1323.84,884.74c-.66-.77-1.33-1.55-1.99-2.32-.99-.11-1.99-.22-2.98-.33-1.21.77-2.43,1.55-3.64,2.32-.52,1.79-1.01,3.96,0,5.63.8,1.72,1.8,2.01,3.31,2.98,1.21-.33,2.43-.66,3.64-.99,1.32-1.75,3.37-4.47,1.66-7.29Z"/>
  <path class="st0" d="M1296.68,865.86c1.43-1.99,2.4-3.27,2.32-6.96-.55-.66-1.1-1.33-1.66-1.99-1.32-.22-2.65-.44-3.97-.66-2.24,1.4-5.88,3.92-3.64,7.62.66.77,1.32,1.55,1.99,2.32,1.88.38,3.38.14,4.97-.33Z"/>
  <path class="st0" d="M1297.01,934.43c-1.99,1.33-2.65,1.98-3.98,3.98.22.88.44,1.77.66,2.65.7,1.5,1.52,1.95,2.98,2.65,3.01-.02,4.08-.92,5.3-2.65.6-2.83-.09-4.24-1.32-5.96-1.21-.22-2.43-.44-3.64-.66Z"/>
  <path class="st0" d="M1329.47,923.83c4-1.71,3.65-6.35,1.33-9.28-1.1-.22-2.21-.44-3.31-.66-.44.22-.88.44-1.33.66-5.38,2.2-2.5,12.54,3.31,9.28Z"/>
  <path class="st0" d="M1275.15,908.59c1.61-.87,2.18-2.32,2.32-4.64-.77-1.79-1.4-2.44-2.65-3.64-1.21-.11-2.43-.22-3.64-.33-1.49,1.22-2.38,1.8-3.31,3.64-.29,4.72,4.03,8.41,7.29,4.97Z"/>
  <path class="st0" d="M1273.16,836.71c-.55-.66-1.1-1.33-1.66-1.99-.99-.11-1.99-.22-2.98-.33-.88.55-1.77,1.1-2.65,1.66-.73,2.71-.47,4.41.66,6.63.66.33,1.33.66,1.99.99,3.78-.06,7-3.24,4.64-6.96Z"/>
  <path class="st0" d="M1264.21,868.84c-1.1-.11-2.21-.22-3.31-.33-.44.22-.88.44-1.33.66-3.03,4.04-1.96,6.87,2.32,8.94,1.84-.7,2.62-1.32,3.98-2.32.5-1.72.95-3.39,0-4.97-.55-.66-1.1-1.33-1.66-1.99Z"/>
  <path class="st0" d="M1279.45,970.54c-3.47,1.8-4.11,2.23-5.96,5.63.2,4.06,1.8,4.95,4.31,6.63,3.9,0,4.88-1.06,6.96-2.65.74-2.77.47-5.13-.33-7.62-1.47-1.03-2.54-1.79-4.97-1.99Z"/>
  <path class="st0" d="M1268.85,936.75c.22.77.44,1.55.66,2.32,1.83.23,1.98-.08,3.31-.99v-1.66c-.77-.33-1.55-.66-2.32-.99-.55.44-1.1.88-1.66,1.33Z"/>
  <path class="st0" d="M1295.02,896.67c.44-1.71.79-2.8,0-4.31-.81-1.76-1.85-2.22-3.98-2.65-1.53.95-2.58,1.25-3.64,2.65-1.44,5.74,4.64,8.76,7.62,4.31Z"/>
  <path class="st0" d="M1334.11,1017.58c-2.33,1.2-3.77,1.94-5.63,3.31-.71,2.65-.45,4.56.33,6.96,3.24,2.4,9.41,3.01,11.26-1.33,1.12-1.26,1.26-3.71.33-5.3-1.02-2.32-3.05-3.54-6.29-3.64Z"/>
  <path class="st0" d="M1439.45,1011.94c-1.66-.22-3.31-.44-4.97-.66-3.4,2.14-4.99,3.91-4.31,9.28,3.26,3.13,5.17,4.1,10.27,2.32,2.77-4.18,1.8-7.49-.99-10.93Z"/>
  <path class="st0" d="M1407.98,972.19c5.74,2.85,6.91-4.16,5.63-7.62-1.37-.89-2.04-1.52-4.31-1.66-.77.33-1.55.66-2.32.99-.55.99-1.1,1.99-1.66,2.98-.08,3.02.62,4.42,2.65,5.3Z"/>
  <path class="st0" d="M1339.74,983.46c-.44.33-.88.66-1.33.99-3.09,1.7-1.71,5.68-.33,7.95,1.21.33,2.43.66,3.64.99,1.21-.77,2.43-1.55,3.64-2.32.59-1.97,1.06-4.12-.33-5.63-.95-1.75-2.48-2.12-5.3-1.99Z"/>
  <path class="st0" d="M1450.38,978.82c-1.7-1.18-2.75-1.76-5.96-1.66-1.1.88-2.21,1.77-3.31,2.65-.92,3.09-.83,6.08,1.99,7.29,2.25,1.97,6.28.6,7.29-1.66,1.02-1.1,1.25-3.18.66-4.97-.22-.55-.44-1.1-.66-1.66Z"/>
  <path class="st0" d="M1366.57,1006.64c-1.6,1.31-2.65,1.99-3.64,3.98-.11,3.91,1.1,5.11,3.64,6.29,4.22.03,5.6-1.82,6.63-4.97-.04-4.17-2.1-5.57-6.63-5.3Z"/>
  <path class="st0" d="M1358.29,1039.11c-2.3,1.47-2.84,2-4.31,4.31.14,3.61,1.44,5.09,3.97,6.29,2.21.09,3.06-.3,4.97-.99,1.99-3.13,1.82-6.1-.33-8.94-1.44-.22-2.87-.44-4.31-.66Z"/>
  <path class="st0" d="M1409.3,1000.02c-.88.33-1.77.66-2.65.99-1.12,1.73-1.74,2.82-1.66,5.96,2.88,3.49,5.57,3.98,9.28.99.58-2.15.59-3.81,0-5.96-1.54-1.1-2.25-1.91-4.97-1.99Z"/>
  <path class="st0" d="M1400.69,1037.45c.51-1.78.93-3.6,0-5.3-.66-.88-1.33-1.77-1.99-2.65-1.21-.22-2.43-.44-3.64-.66-2.39,1.38-4.17,1.59-4.64,4.97-.41,1.4.44,2.64.99,3.98,1.21.66,2.43,1.33,3.64,1.99,2.93-.19,3.93-1.07,5.63-2.32Z"/>
  <path class="st0" d="M1092.29,1078.86c-.66.11-1.33.22-1.99.33-.11.22-.22.44-.33.66.33.22.66.44.99.66.88-.11,1.77-.22,2.65-.33-.55-1.23-.13-.78-1.33-1.33Z"/>
  <path class="st0" d="M758.06,572.37c.11-.55.22-1.1.33-1.66-1.2-1.6-.84-2.45-3.64-2.65-1.17,1.09-1.88,1.37-2.32,3.31-.22.86-.15.85.33,1.66l1.33,1.33c2.17-.32,2.63-1,3.98-1.99Z"/>
  <path class="st0" d="M763.03,639.62c-5.5,2.45-9.18,4.71-6.96,11.93,10.9,8.47,19.44-11.37,6.96-11.93Z"/>
  <path class="st0" d="M845.18,736.34c-7.81,3.25-11.48,14.18.33,14.91,6.87-3.39,9.31-12.51-.33-14.91Z"/>
  <path class="st0" d="M715,541.57c-.11-.88-.22-1.77-.33-2.65-.77-.33-1.55-.66-2.32-.99-.77.55-1.55,1.1-2.32,1.66-.22,1.32-.44,2.65-.66,3.98v.33c1.05.66,1.13.9,2.98.99.88-1.1,1.77-2.21,2.65-3.31Z"/>
  <path class="st0" d="M878.64,789.67c.5-1.72.95-3.39,0-4.97-.77-.77-1.55-1.55-2.32-2.32-1.1-.11-2.21-.22-3.31-.33-.55.22-1.1.44-1.66.66-1.68,2.33-2.32,4.45-1.33,7.95.77.44,1.55.88,2.32,1.33,3.42-.04,4.39-.96,6.29-2.32Z"/>
  <path class="st0" d="M736.2,574.36c.99.33,1.99.66,2.98.99,4.69-1.96,10.61-8.74,10.6-15.24-1.07-.73-1.24-1.09-2.98-1.33-4.09,3-10.23,8.83-10.93,14.91.11.22.22.44.33.66Z"/>
  <path class="st0" d="M937.93,1078.86v1.33c3.97.11,7.95.22,11.93.33-.43-8.92-8.83-5.98-11.93-1.66Z"/>
  <path class="st0" d="M719.97,569.39c.77.11,1.55.22,2.32.33,1.55-1.46,2.43-2.41,3.31-4.64-.8-1.82-.94-2.32-3.64-2.32-1.39,1.77-2.67,2.66-2.98,5.63.33.33.66.66.99.99Z"/>
  <path class="st0" d="M726.26,586.62c-.77-.11-1.55-.22-2.32-.33-.77.66-1.55,1.33-2.32,1.99v2.98c.66.66,1.33,1.33,1.99,1.99,1.19.44,1.79.03,2.98-.33.55-1.32,1.1-2.65,1.66-3.98-.61-1.32-.66-1.68-1.99-2.32Z"/>
  <path class="st0" d="M728.91,677.38c7.56,5.88,15.01-2.71,9.28-9.94-1.66-.22-3.31-.44-4.97-.66-3.93,2.56-6.18,4.97-4.31,10.6Z"/>
  <path class="st0" d="M740.17,544.88c-.73-1.47-.88-2.13-2.65-2.65-1.61,2.54.49,5.7,2.65,2.65Z"/>
  <path class="st0" d="M1239.37,888.39v-3.31c-.66-.77-1.33-1.55-1.99-2.32-1.1-.11-2.21-.22-3.31-.33l-2.65,2.65v3.31c.63,1.63,1.07,2.24,2.98,2.65,2,.61,3.98-1.18,4.97-2.65Z"/>
  <path class="st0" d="M1200.95,826.11c-.55-.77-1.1-1.55-1.66-2.32-1.44-.22-2.87-.44-4.31-.66-3.57,1.8-8.06,4.03-6.29,9.94,2.84,7.91,16.69.67,12.26-6.96Z"/>
  <path class="st0" d="M1068.78,908.59c4.99,4.47,12.51-4.02,7.29-10.27-1.66-.22-3.31-.44-4.97-.66-2.91,1.5-6.08,3.56-4.64,8.28.56,1.4.96,2.02,2.32,2.65Z"/>
  <path class="st0" d="M1096.6,875.8c1.91-.77,2.53-1.75,3.31-3.64-.09-2.88-.81-3.39-1.99-4.97-.88-.22-1.77-.44-2.65-.66-.99.33-1.99.66-2.98.99-.66,1.21-1.33,2.43-1.99,3.64.7,2.22,1.03,3.4,2.65,4.64h3.64Z"/>
  <path class="st0" d="M1004.18,915.22c-.88.77-1.77,1.55-2.65,2.32-.6,2.93.22,4.36,1.33,6.29,1.67.66,3.17,1.4,4.97.33,1.57-.72,2.11-1.55,2.32-3.64.62-1.79-.74-3.39-1.66-4.64-1.44-.22-2.87-.44-4.31-.66Z"/>
  <path class="st0" d="M1244.01,1032.15c14.03-7.23,2.26-31.89-2.98-41.08-18.16-31.81-37.16-61.7-55.98-92.42-5.4-8.82-13.33-29.67-25.84-30.14-18.98,9.04-23.81,33.04-34.12,50.68-7.52,12.86-15.25,25.07-24.18,36.44-7.51,8.5-15.02,17.01-22.53,25.51-5.26,6.79-18.73,22.82-13.25,36.11,4.59,11.14,18.73,13.68,31.8,16.56,14.18,3.13,31.72,1.03,47.7,3.64h59.96c14.53-2.33,28.68.24,39.42-5.3Z"/>
  <path class="st0" d="M995.9,841.68c-6.51,3.25-11.76,5.43-13.91,12.92-3.48,12.1,6.93,25.7,19.88,23.19,22.29-4.32,21.3-36.91-5.96-36.11Z"/>
  <path class="st0" d="M992.92,988.09c-6.61,4.05-7.65,10.31-2.65,16.56,14.37,4.36,16.41-17.22,2.65-16.56Z"/>
  <path class="st0" d="M1487.15,1000.02c.97-3.59.57-6.16-1.99-7.95-1.32-.11-2.65-.22-3.98-.33-.66.33-1.32.66-1.99.99-1.99,3.06-2.06,6.78.99,8.94,3.28.81,4.72.05,6.96-1.66Z"/>
  <path class="st0" d="M946.21,856.59c-1.21-.22-2.43-.44-3.64-.66-2.47,1.56-3.66,2.22-4.97,4.97.03,2.51.47,3.57.99,5.3.99.55,1.99,1.1,2.98,1.66,6.88-.25,8.1-6.97,4.64-11.26Z"/>
  <path class="st0" d="M1861.46,824.12c-.77-.11-1.55-.22-2.32-.33-1.8,1.19-2.64,1.63-3.64,3.64.14,3.06,1.17,3.97,3.31,4.97,3.27-.17,3.67-1.25,4.97-3.31-.14-2.53-.83-3.83-2.32-4.97Z"/>
  <path class="st0" d="M1871.07,702.22c7.05-.63,8.12-6.88,5.96-12.92-1.76-1.27-2.86-2.26-5.96-2.32-7.26,3.65-6.74,11.47,0,15.24Z"/>
  <path class="st0" d="M1860.8,853.94v2.65c.22.33.44.66.66.99h2.32c.33-.66.66-1.33.99-1.99-1.06-1.45-1.29-2.07-3.31-2.65-.22.33-.44.66-.66.99Z"/>
  <path class="st0" d="M1842.58,848.97h-1.99c-2.29,3.01-3.37,7.77-.33,10.93.33.11.66.22.99.33,2.07-1.81,5.22-4.92,2.98-8.94-.55-.77-1.1-1.55-1.66-2.32Z"/>
  <path class="st0" d="M1852.19,872.16c-.77.55-1.55,1.1-2.32,1.66-.9,3.19-.32,5.89,1.99,7.62.55.11,1.1.22,1.66.33.66-.33,1.33-.66,1.99-.99.87-2.79.89-4.55,0-7.29-1.1-.44-2.21-.88-3.31-1.33Z"/>
  <path class="st0" d="M1745.53,621.4c-.99.66-1.99,1.33-2.98,1.99-1.25,4.34.09,10.68,5.3,9.28,1.61-.74,2.23-1.74,2.98-3.31.06-3.96-.77-5.19-2.32-7.29-.99-.22-1.99-.44-2.98-.66Z"/>
  <path class="st0" d="M1823.04,858.57h.33c.66-.66,1.33-1.33,1.99-1.99.35-1.61.39-3.33-.33-4.64-.44-.55-.88-1.1-1.33-1.66h-.99c-.77.99-1.55,1.99-2.32,2.98.33,1.44.66,2.87.99,4.31.55.33,1.1.66,1.66.99Z"/>
  <path class="st0" d="M1821.05,662.8c.22-.44.44-.88.66-1.33.11-.88.22-1.77.33-2.65-.55-.66-1.1-1.33-1.66-1.99-1.1-.22-2.21-.44-3.31-.66-1.69,1.11-2.42,1.35-3.31,3.31.22.55.44,1.1.66,1.66.66.77,1.33,1.55,1.99,2.32,1.99.33,2.91-.11,4.64-.66Z"/>
  <path class="st0" d="M1867.43,735.68c-7.57-19.4-23.17-36.44-50.68-36.11-4.08.88-8.17,1.77-12.26,2.65-9.32,2.93-16.42,9.4-19.88,18.22-12.83,32.76,5.85,63.71,29.81,72.54,6.45,2.38,16.13,6.13,25.18,3.64,23.41-6.44,39.42-31.23,27.83-60.95Z"/>
  <path class="st0" d="M1865.44,884.41c.77-.99,1.55-1.99,2.32-2.98-.33-1.32-.66-2.65-.99-3.98-.77-.11-1.55-.22-2.32-.33-1.11,1.09-1.65,1.68-2.32,3.31.33,1.21.66,2.43.99,3.64.77.11,1.55.22,2.32.33Z"/>
  <path class="st0" d="M1905.52,818.49c1.7-2.23,4.17-6.75,1.99-9.94-.68-1.19-1.06-1.36-2.65-1.66-2.81,2.06-5.72,7.51-3.97,11.93,1.81.36,3.09.13,4.64-.33Z"/>
  <path class="st0" d="M1897.57,833.4c-.33.22-.66.44-.99.66-.7,2.71-.31,4.48,2.32,4.97.55-.44,1.1-.88,1.66-1.33.22-.66.44-1.33.66-1.99-.66-.66-1.33-1.33-1.99-1.99-.55-.11-1.1-.22-1.66-.33Z"/>
  <path class="st0" d="M1860.14,850.62c3.09-1.69,2.37-6.12,1.32-9.28-.88-.33-1.77-.66-2.65-.99-1.79,1.59-4.31,5.03-2.32,8.28.77.77,1.55,1.55,2.32,2.32.44-.11.88-.22,1.33-.33Z"/>
  <path class="st0" d="M1486.82,1026.52c-1.21-.11-2.43-.22-3.64-.33-1.8,1.19-2.64,1.63-3.64,3.64-.28,7.13,5.63,7,9.28,3.98.5-1.72.95-3.39,0-4.97-.66-.77-1.33-1.55-1.99-2.32Z"/>
  <path class="st0" d="M1879.68,837.71c.44.33.88.66,1.32.99,1.74-.27,1.89-.6,2.98-1.33.93-3.28,1.12-6.07-.33-8.94-.55-.11-1.1-.22-1.66-.33-2.35,2.29-3.43,5.66-2.32,9.61Z"/>
  <path class="st0" d="M1884.32,851.62c-.44.44-.88.88-1.32,1.33-.41,2.01-.17,3.95.33,5.63.55.33,1.1.66,1.66.99h.33c1.92-1.44,2.48-2.36,2.32-5.96-.11-.22-.22-.44-.33-.66-1.12-.79-1.07-1.12-2.98-1.33Z"/>
  <path class="st0" d="M1887.63,806.9c-.77-1.38-1.5-1.65-3.64-1.66-3.46,2.78-5.52,7.91-2.98,12.92.99.11,1.99.22,2.98.33,2.18-1.94,6.07-7.45,3.64-11.59Z"/>
  <path class="st0" d="M1584.54,1029.17c.44,1.66.88,3.31,1.32,4.97,2.95,1.86,5.5,1.24,7.95-.66.22-1.77.44-3.53.66-5.3-.44-.66-.88-1.33-1.32-1.99-1.5-.56-2.34-1-4.64-.99-.77.33-1.55.66-2.32.99-.55.99-1.1,1.99-1.66,2.98Z"/>
  <path class="st0" d="M1592.82,1003.99c3.19-.21,4.14-1.26,5.96-2.65,1.15-4.27-.23-6.33-2.32-8.94-1.55-.22-3.09-.44-4.64-.66-5.91,3.6-4.84,9.36.99,12.26Z"/>
  <path class="st0" d="M1597.12,961.93c-1.36,1.05-2.24,1.22-2.98,2.98-.89,2.02.12,4.1.66,5.63.77.44,1.55.88,2.32,1.33,1.44-.33,2.87-.66,4.31-.99.84-1.21,1.41-1.69,1.66-3.64.39-1.13-.16-2.77-.99-3.64-.92-1.61-2.31-1.8-4.97-1.66Z"/>
  <path class="st0" d="M1622.63,1028.51c-.88-.11-1.77-.22-2.65-.33-.55.22-1.1.44-1.66.66-.55.88-1.1,1.77-1.66,2.65-.04,2.79.47,3.82,1.99,4.97,3.52.75,5.14-.76,6.29-3.31-.11-.77-.22-1.55-.33-2.32-.66-.77-1.32-1.55-1.99-2.32Z"/>
  <path class="st0" d="M1521.93,961.93c-2.29,1.31-2.86,1.88-4.31,3.98.44,1.55.88,3.09,1.33,4.64,1.62,1.07,3.8,2.3,5.96.99,1.8-.86,1.99-2.03,2.98-3.64-.33-1.32-.66-2.65-.99-3.98-1.54-1.02-2.44-1.84-4.97-1.99Z"/>
  <path class="st0" d="M1559.69,962.92c-1.62-.65-2.57-1.26-4.97-1.33-2.34,1.47-3.21,1.86-4.31,4.64.21,3.19,1.26,4.14,2.65,5.96,6.66,1.85,9.76-4.02,6.62-9.28Z"/>
  <path class="st0" d="M1490.13,960.93c-1.21-.11-2.43-.22-3.64-.33-3.92,2.34-5.39,6.93-.99,9.94,3.26.7,4.75-.23,6.62-1.66.52-1.79,1.01-3.96,0-5.63-.66-.77-1.32-1.55-1.99-2.32Z"/>
  <path class="st0" d="M1518.29,994.72c-1.1.66-2.21,1.33-3.31,1.99-.52,1.79-1.01,3.96,0,5.63.76,1.59,1.58,1.75,2.98,2.65,1.55-.44,3.09-.88,4.64-1.33.44-1.1.88-2.21,1.32-3.31.68-1.99-.97-3.67-1.99-4.97-1.21-.22-2.43-.44-3.64-.66Z"/>
  <path class="st0" d="M1756.79,665.12c4.86,1.06,7.9-2.32,7.62-7.62-.33-.55-.66-1.1-.99-1.66-1.44-.87-2.44-1.36-4.97-1.33-2.06,1.67-3.22,2.57-4.31,5.3.15,2.73,1.01,4.1,2.65,5.3Z"/>
  <path class="st0" d="M1558.7,994.06c-1.1-.11-2.21-.22-3.31-.33-1.1.77-2.21,1.55-3.31,2.32-.51,1.78-.93,3.6,0,5.3,1.52,3.54,4.85,3.03,7.95,1.66,1.1-1.68,2.42-4.3.99-6.63-.77-.77-1.55-1.55-2.32-2.32Z"/>
  <path class="st0" d="M1622.96,937.74c-.88.55-1.77,1.1-2.65,1.66-.67,2.52-.42,3.99.33,6.29,2.87,1.76,4.91,1.19,7.29-.66,1.31-4.22.19-7.51-4.97-7.29Z"/>
  <path class="st0" d="M1718.03,733.69c-.77.33-1.55.66-2.32.99-2.09,3.23-2.24,6.8-.66,10.6,2.04,1.35,5.18,2.52,7.29.33,4.6-2.45,1.82-8.63-.33-11.26-1.32-.22-2.65-.44-3.97-.66Z"/>
  <path class="st0" d="M1728.3,640.94c2.21-.2,2.65-.75,3.98-1.66.64-2.39.61-4.85,0-7.29-1.33-.83-2.25-1.46-4.31-1.66-.88.33-1.77.66-2.65.99-1.05,1.56-2.07,3.13-1.33,5.63.86,2.18,2.12,3.11,4.31,3.98Z"/>
  <path class="st0" d="M1709.42,658.17c2.1-3.3,1.17-6.09-1.33-8.28-.99-.11-1.99-.22-2.98-.33-2.3,1.47-2.84,2-4.31,4.31.44,1.44.88,2.87,1.33,4.31,2.65,1.62,4.56,1.16,7.29,0Z"/>
  <path class="st0" d="M1746.85,772.78c-1.2,1.62-2.48,3.2-1.66,5.96.55.88,1.1,1.77,1.66,2.65,3.94,1.11,8.06.21,8.61-3.98.43-1.31-.22-2.3-.66-3.64-1.57-1.1-2.56-1.92-5.3-1.99-.88.33-1.77.66-2.65.99Z"/>
  <path class="st0" d="M102.18,208.32c.4-1.4,1.04-3.38.33-4.97-.66-.99-1.33-1.99-1.99-2.98-1.32-.22-2.65-.44-3.98-.66-.77.33-1.55.66-2.32.99-2.43,3.39-2.14,6.2.33,9.28,3.53.96,5.29.12,7.62-1.66Z"/>
  <path class="st0" d="M1718.69,705.2c-1.1-.11-2.21-.22-3.31-.33-.99.66-1.99,1.33-2.98,1.99-.94,3.43-.35,5.61,1.32,7.95,1.72.5,3.39.95,4.97,0,2.21-.96,3.47-4.75,1.99-7.29-.66-.77-1.32-1.55-1.99-2.32Z"/>
  <path class="st0" d="M1709.75,846.65c11.17-2.37,10.49-23.42-3.64-22.86-9.62,5.84-7.49,25.22,3.64,22.86Z"/>
  <path class="st0" d="M1640.52,1015.92c3.72-.07,6.49-2.56,4.97-6.63-.66-.66-1.33-1.33-1.99-1.99-.99-.11-1.99-.22-2.98-.33-1.49,1.22-2.38,1.8-3.31,3.64.22.99.44,1.99.66,2.98.66,1.37,1.3,1.67,2.65,2.32Z"/>
  <path class="st0" d="M1645.49,923.5c-.77-.11-1.55-.22-2.32-.33-2.08,1.31-3.16,1.7-4.31,3.98.05,3.52,1.41,4.66,3.98,5.63,3.01-.19,3.97-1.5,4.97-3.64-.22-1.21-.44-2.43-.66-3.64-.55-.66-1.1-1.33-1.66-1.99Z"/>
  <path class="st0" d="M1654.1,962.26c-2.36,1.28-3.42,1.55-4.64,3.98,0,2.2.27,3.25,1.33,4.31,1.96,3.5,5.94,1.36,7.95-.33.64-2.58.42-3.98-.33-6.29-1.44-.55-2.87-1.1-4.31-1.66Z"/>
  <path class="st0" d="M1816.41,905.28c-8.22-26.63-25.78-49.02-60.95-48.69-6.07,2.38-13.2,1.64-18.88,3.64-19.66,6.93-35.3,22.52-42.73,41.74-4.87,12.6-2.83,30.93,1.66,42.07,10.17,25.25,39.93,56.9,79.17,49.69,36.88-6.77,55.15-45.03,41.74-88.44Z"/>
  <path class="st0" d="M257.87,1016.58c-.99-.11-1.99-.22-2.98-.33-.99.66-1.99,1.33-2.98,1.99-.52,1.79-1.01,3.96,0,5.63.7,1.5,1.52,1.95,2.98,2.65,2.79-.22,3.66-1.11,5.3-2.32.39-1.5.74-2.77.33-4.31-.88-1.1-1.77-2.21-2.65-3.31Z"/>
  <path class="st0" d="M288.67,912.24c-1.21-.11-2.43-.22-3.64-.33-1.49,1.22-2.38,1.8-3.31,3.64.03,2.79.59,3.43,1.66,4.97,1.72.5,3.39.95,4.97,0,1.37-.66,1.67-1.3,2.32-2.65.11-3.09-.34-4.37-1.99-5.63Z"/>
  <path class="st0" d="M269.13,880.11c-.88.44-1.77.88-2.65,1.33-.33.66-.66,1.33-.99,1.99.2,2.55.93,3.43,1.99,4.97,1.43.39,2.46.74,3.98.33,2.96-1.16,3.38-3.64,2.32-6.96-1.45-.94-2.16-1.59-4.64-1.66Z"/>
  <path class="st0" d="M278.07,1078.86c-.11.55-.22,1.1-.33,1.66h12.26c-.57-6.08-9.96-7.03-11.93-1.66Z"/>
  <path class="st0" d="M234.68,954.97c-4.66,2.9-5.05,6.62-1.66,10.93,2.84.76,4.27.31,6.63-.66.55-.99,1.1-1.99,1.66-2.98-.08-2.59-.66-3.57-1.33-5.3-1.6-1.13-2.46-1.96-5.3-1.99Z"/>
  <path class="st0" d="M238.32,875.47c-2.26,1.25-3.15,1.62-4.31,3.98.22,1.32.44,2.65.66,3.98.7,1.5,1.52,1.95,2.98,2.65,3.15-.01,3.94-.74,5.63-1.99.75-2.71.8-4.01,0-6.63-1.47-1.03-2.54-1.79-4.97-1.99Z"/>
  <path class="st0" d="M207.52,841.68c-.33-1.44-.66-2.87-.99-4.31-1.21-.44-2.43-.88-3.64-1.33-3.94,2-6.74,4.25-4.97,9.94,1.07.73,1.24,1.09,2.98,1.33,3.7,1.28,5.35-3.23,6.63-5.63Z"/>
  <path class="st0" d="M200.23,1015.26c-5.87,3.36-8.39,8.34-3.64,14.24,8.39,2.24,12.21-5.04,9.28-12.26-1.65-1.16-2.69-1.98-5.63-1.99Z"/>
  <path class="st0" d="M207.19,860.23c-1.41-.88-2.36-1.53-4.64-1.66-2.15,1.3-3.58,1.49-3.98,4.64-.92,2.61,1.68,4.73,3.64,5.63,1.32-.22,2.65-.44,3.98-.66,1.2-1.65,2.48-3.53,1.66-6.29-.22-.55-.44-1.1-.66-1.66Z"/>
  <path class="st0" d="M227.39,908.26c-.99-.11-1.99-.22-2.98-.33-2.95,1.71-7.21,6.91-1.66,9.28h3.31c2.04-.81,2.81-1.96,3.64-3.98-.02-2.82-.72-3.81-2.32-4.97Z"/>
  <path class="st0" d="M227.39,854.93c-.99-.11-1.99-.22-2.98-.33-2.37,1.44-3.94,1.77-4.31,5.3-.64,1.96.89,4.3,2.32,5.3h3.98c5.03-1.83,4.34-7.37.99-10.27Z"/>
  <path class="st0" d="M354.26,814.19c2.29-1.29,5.81-3.38,3.64-6.96-.66-.66-1.33-1.33-1.99-1.99-.99-.11-1.99-.22-2.98-.33-.99.66-1.99,1.33-2.98,1.99-.86,3.13-.29,4.51,1.33,6.63.99.22,1.99.44,2.98.66Z"/>
  <path class="st0" d="M352.94,898.99c-.11-.77-.22-1.55-.33-2.32-.55-.66-1.1-1.33-1.66-1.99-.88-.11-1.77-.22-2.65-.33-.88.77-1.77,1.55-2.65,2.32-.41,2.14.03,3.28.66,4.97,1.32.22,2.65.44,3.98.66.88-1.1,1.77-2.21,2.65-3.31Z"/>
  <path class="st0" d="M330.74,1042.75c-.66.33-1.33.66-1.99.99-5.37,8.41,3.76,15.22,10.6,9.61,1.8-6.24-1.52-10.96-8.61-10.6Z"/>
  <path class="st0" d="M344.66,868.51c-1.1-.11-2.21-.22-3.31-.33-.99.77-1.99,1.55-2.98,2.32-.89,3.22-.33,4.79,1.33,6.96,1.43.39,2.46.74,3.98.33.88-.55,1.77-1.1,2.65-1.66.95-3.24.71-5.92-1.66-7.62Z"/>
  <path class="st0" d="M299.94,863.87c-.33-.88-.66-1.77-.99-2.65-1.46-.9-2.35-1.38-4.97-1.33-.55.33-1.1.66-1.66.99-3.07,1.61-1.97,5.74.33,7.29,1.94.4,3.67.16,5.3-.33.98-1.32,1.71-1.81,1.99-3.98Z"/>
  <path class="st0" d="M188.97,1070.58c-3.44.24-4.33,1.46-6.29,2.98-.66,2.52-.74,3.78-.66,6.96h12.26c.07-2.31.13-4.91-.66-6.29-.93-2.04-2.49-2.83-4.64-3.64Z"/>
  <path class="st0" d="M355.26,975.84c-1.32-.22-2.65-.44-3.98-.66-7.08,3.65-5.49,14.21,3.98,10.93,1.66-2.16,3.15-4.35,1.99-7.62-.66-.88-1.33-1.77-1.99-2.65Z"/>
  <path class="st0" d="M301.59,894.68c-.77-.11-1.55-.22-2.32-.33-2.19,1.31-4.65,3.13-2.98,6.29.74,1.61,1.74,2.23,3.31,2.98,2.76-.33,3.67-1.58,4.64-3.64-.07-2.94-.94-4.08-2.65-5.3Z"/>
  <path class="st0" d="M300.6,844h3.31c1.73-.79,2.27-1.83,2.98-3.64-.05-2.65-.79-3.83-2.65-4.64-.99-.11-1.99-.22-2.98-.33-.88.66-1.77,1.33-2.65,1.99-.22.88-.44,1.77-.66,2.65.95,1.71,1.18,2.83,2.65,3.98Z"/>
  <path class="st0" d="M319.48,899.32c-1.61,1.29-2.65,1.62-2.98,4.31.85,2.04,1.39,2.7,3.31,3.64.66-.11,1.33-.22,1.99-.33,1.59-.76,1.75-1.58,2.65-2.98-.33-.99-.66-1.99-.99-2.98-.86-1.33-1.77-1.65-3.98-1.66Z"/>
  <path class="st0" d="M312.19,1007.64c-2.34,1.27-4.65,2.05-5.96,4.31-3,5.18.39,16.94,8.28,14.24,7.76-2.66,7.89-18.46-2.32-18.55Z"/>
  <path class="st0" d="M332.73,854.6c2.02-2.28.34-4.96-.99-6.63-.99-.22-1.99-.44-2.98-.66-2.47,1.36-3.12,1.7-4.64,3.98.13,3.33,1.32,4.53,3.64,5.63,2.72.03,4.1-.51,4.97-2.32Z"/>
  <path class="st0" d="M63.75,817.5c2.05-.93,2.96-2.68,2.98-5.63-.55-1.1-1.1-2.21-1.66-3.31-1.32-.33-2.65-.66-3.98-.99-2.15,1.25-3.17,1.7-4.31,3.98-.28,4.38,2.97,8.47,6.96,5.96Z"/>
  <path class="st0" d="M11.75,840.36c-5.41.88-10.82,1.77-16.23,2.65v191.8c42.89,5.96,71.96-6.35,84.47-37.43,7.12-17.69,5.75-47.71,1.66-67.58-8.49-41.22-20.08-89.81-69.89-89.44ZM3.46,1021.88h-1.33c.11-.22.22-.44.33-.66h.66l.33.33v.33ZM15.72,919.53c-1.47-.45-.67.24-1.33-.99.44.22.88.44,1.33.66v.33ZM17.71,956.96h-.66v-.99h.66v.99ZM27.32,867.85c.11-.22.22-.44.33-.66l.66.66h-.99ZM28.64,863.21l-.99.66v-.99h.99v.33ZM33.28,973.52c-.11-.11-.22-.22-.33-.33l.33-.66.66.33c-.22.22-.44.44-.66.66ZM33.94,855.59c-1.19.09-.38.36-.99-.66h.66l.33.33v.33ZM36.59,936.09l-.66.33c-.22-.33-.44-.66-.66-.99.44.11.88.22,1.33.33v.33ZM41.23,1003.33c-.22-.22-.44-.44-.66-.66l.33-.66h.66c.11.22.22.44.33.66-.22.22-.44.44-.66.66ZM41.23,943.71c.22-.33.44-.66.66-.99-.17.66.38.41-.66.99ZM45.53,1016.58v-.66h.99c-.6.67,0,.25-.99.66ZM49.51,897.99l-.99-.33c.11-.22.22-.44.33-.66h.66v.99ZM56.13,868.84h-2.65c-.11-.33-.22-.66-.33-.99,1.57,0,2.2.04,2.98.66v.33Z"/>
  <path class="st0" d="M9.76,730.05c-2.32,1.32-2.88,1.81-4.31,3.98.15,2.73,1.01,3.8,2.65,4.97.66.11,1.33.22,1.99.33,2.45-1.04,2.67-1.87,3.98-3.98-.07-3.43-1.23-4.86-4.31-5.3Z"/>
  <path class="st0" d="M63.75,121.54c6.33-2.65,3.81-12.6-3.98-12.26-8.82,5.04-3.02,16.63,3.98,12.26Z"/>
  <path class="st0" d="M181.35,852.94c-1.39-1.01-2.4-1.66-4.31-2.32-5.37,2.32-7.3,6.12-3.31,11.26,2.52.67,3.99.42,6.29-.33,2.05-2.72,2.59-4.83,1.33-8.61Z"/>
  <path class="st0" d="M63.75,164.93c-3.28,2.06-7,8.74-1.33,11.26,5.57,5.02,12.48-5.12,5.63-10.93-1.44-.11-2.87-.22-4.31-.33Z"/>
  <path class="st0" d="M23.01,717.13c-1.55-.22-3.09-.44-4.64-.66-4.19,2.53-5.94,5.38-3.98,11.26,8.31,6.43,14.8-3.08,8.61-10.6Z"/>
  <path class="st0" d="M53.15,222.9c1.79,1.28,3.14,2.26,6.29,2.32,7.36-2.82,7.46-14.84-2.65-14.58-.44.22-.88.44-1.33.66-4.35,1.96-3.87,7.3-2.32,11.59Z"/>
  <path class="st0" d="M77,77.81c16.37-3.44,15.82-30.85-5.63-30.14-3.21,1.56-6.28,2.28-8.28,4.97-7.05,9.48-1.01,28.31,13.91,25.18Z"/>
  <path class="st0" d="M133.32,918.53c-.16,4.22,1.4,5.86,4.97,6.29.77-.33,1.55-.66,2.32-.99.83-1.33,1.46-2.25,1.66-4.31-1.31-2.57-1.46-4.17-5.3-4.31-.77.33-1.55.66-2.32.99-.44.77-.88,1.55-1.33,2.32Z"/>
  <path class="st0" d="M147.56,985.78c-11.67,6.81-16.15,14.7-19.21,30.14-3.34,16.88,4.49,36.26,23.19,32.79,27.93-5.17,28.26-63.57-3.98-62.94Z"/>
  <path class="st0" d="M9.1,806.24c-1.65,1.05-2.37,1.18-3.31,2.98v1.99c.66.55,1.33,1.1,1.99,1.66.88.11,1.77.22,2.65.33.55-.66,1.1-1.33,1.66-1.99.11-.99.22-1.99.33-2.98-1.09-1.15-1.21-1.7-3.31-1.99Z"/>
  <path class="st0" d="M112.78,809.88c-5.5,2.76-7.41,6.99-3.31,12.26,5.25,1.59,12.72-3.21,8.94-9.28-.92-2.05-2.68-2.96-5.63-2.98Z"/>
  <path class="st0" d="M158.49,896.01c.49-1.84.92-3.62,0-5.3-.87-1.95-2.35-2.79-4.97-2.98-3.94,2.36-5.22,4.43-3.31,9.28,1.44.55,2.87,1.1,4.31,1.66,1.32-.88,2.65-1.77,3.98-2.65Z"/>
  <path class="st0" d="M139.28,808.89c1.8.35,3.03.1,4.64-.33,1-1.52,1.78-2.54,1.99-4.97-.69-1.68-1.01-2.56-2.65-3.31-1.1-.11-2.21-.22-3.31-.33-.88.55-1.77,1.1-2.65,1.66-.97,3.34-.44,5.6,1.99,7.29Z"/>
  <path class="st0" d="M34.6,831.08c5.7,1.63,8.67-1.73,8.28-8.28-.66-.66-1.33-1.33-1.99-1.99-1.1-.11-2.21-.22-3.31-.33-3.48,2.53-6.37,5.9-2.98,10.6Z"/>
  <path class="st0" d="M39.24,742.64c.77-.77,1.55-1.55,2.32-2.32.32-1.72.09-2.74-.33-4.31-1.4-.87-2.15-1.34-4.64-1.33-.55.33-1.1.66-1.66.99-.44,1.21-.88,2.43-1.33,3.64.73,1.45,1.13,2.28,2.65,2.98.99.11,1.99.22,2.98.33Z"/>
  <path class="st0" d="M360.56,953.64c-2.58,1.52-3.64,1.84-4.97,4.64.06,2.33.49,3.03.99,4.64,1.32.55,2.65,1.1,3.98,1.66,3-1.12,6.91-4.19,4.64-8.28-.83-1.76-2.25-2.47-4.64-2.65Z"/>
  <path class="st0" d="M85.28,817.83c-1.21.77-2.43,1.55-3.64,2.32-.54,1.87-1.06,4.53,0,6.29.76,1.59,1.58,1.75,2.98,2.65.88-.22,1.77-.44,2.65-.66,2.83-1.23,3.47-3.99,2.98-7.62-1.6-1.51-2.09-2.56-4.97-2.98Z"/>
  <path class="st0" d="M930.64,921.51c-36.34-60.38-83.06-110.23-124.55-165.3-10.78-14.3-29.38-45.44-46.38-51.34-3.69-1.28-8.69-1.02-13.58-.99-10.74,4.69-18.43,6.59-24.84,15.24-9.32,12.57-12.76,35.15-7.95,55.32,6.5,27.23,18.7,59.59,11.59,94.74-6.52,32.22-18.26,57.89-25.18,89.11-3.59,16.22-3.41,39.61,1.99,53.33,17.65,44.83,69.95,40.94,118.92,28.49,17.56-4.47,35.32-7.22,52.01-11.93,18.03-5.08,36.9-8.14,51.34-16.89,35.12-21.29,25.26-58.81,6.63-89.77Z"/>
  <path class="st0" d="M97.54,777.09c-1.3.73-2.16.76-2.98,1.99-2.56,2.58-.64,5.64.99,7.62,1.43.39,2.46.74,3.98.33,4.22-1.58,3.68-6.32,1.33-9.28-1.1-.22-2.21-.44-3.31-.66Z"/>
  <path class="st0" d="M369.17,841.68c5.23-1.68,6.94-4.87,4.64-10.27-1.71-1.07-2.95-1.72-5.96-1.66-5.76,3.45-5.91,9.78,1.33,11.93Z"/>
  <path class="st0" d="M666.97,586.95c-.77-.11-1.55-.22-2.32-.33-3.28,2.5-5.57,11.78,1.66,11.93,1.87-1.72,4.49-6.05,2.32-9.61-.55-.66-1.1-1.33-1.66-1.99Z"/>
  <path class="st0" d="M658.02,559.78c-3.76,2.51-5.89,12.11,1.99,9.61,1.72-2.44,2.34-4.96,1.33-8.61-.44-.22-.88-.44-1.33-.66-.66-.11-1.33-.22-1.99-.33Z"/>
  <path class="st0" d="M660.67,762.84c-.44.22-.88.44-1.33.66-2.07.91-3.1,2.53-3.31,5.3.33.88.66,1.77.99,2.65,1.4.97,2.44,1.68,4.64,1.99,4.66-2.46,7.11-10.09-.99-10.6Z"/>
  <path class="st0" d="M645.1,533.28c-1.33,1.02-1.7,1.56-2.65,2.98.31,5.51,4.61,3.33,6.29.66v-1.66c-.66-.55-1.33-1.1-1.99-1.66-.55-.11-1.1-.22-1.66-.33Z"/>
  <path class="st0" d="M647.42,668.77c.33,1.44.66,2.87.99,4.31,6.25,4.35,10.62-2.14,6.29-7.29-1.21-.22-2.43-.44-3.64-.66-1.8,1.19-2.64,1.63-3.64,3.64Z"/>
  <path class="st0" d="M638.48,1071.57c-1.32.22-2.65.44-3.98.66-1.56,2.23-2.7,4.34-2.65,8.28h10.27c.07-2.31.13-4.91-.66-6.29-.7-1.5-1.52-1.95-2.98-2.65Z"/>
  <path class="st0" d="M634.83,987.43c-.77-.88-1.55-1.77-2.32-2.65-1.21-.11-2.43-.22-3.64-.33-4.19,2.53-6.59,5.38-4.64,11.26,1.62,1.14,2.79,1.94,5.63,1.99,3.24-1.22,7.97-5.35,4.97-10.27Z"/>
  <path class="st0" d="M642.78,553.49c-.66-.11-1.33-.22-1.99-.33-3.34,3.09-4.21,7.73-2.32,12.59,1.1.44,2.21.88,3.31,1.33.33-.11.66-.22.99-.33,1.75-2.91,2.78-8.49,1.66-12.26-.55-.33-1.1-.66-1.66-.99Z"/>
  <path class="st0" d="M673.59,577.01h1.33c.99-1.7,1.8-4.37.99-6.96-.69-1.39-.98-1.55-2.98-1.66-2.02,3.11-2.01,6.19.66,8.61Z"/>
  <path class="st0" d="M665.64,740.98c3.66,1,5.53.12,7.95-1.66,1.01-3.6.67-5.32-1.33-7.95-1.55-.22-3.09-.44-4.64-.66-3.86,2.52-5.09,6.11-1.99,10.27Z"/>
  <path class="st0" d="M683.2,700.57c-.88.66-1.77,1.33-2.65,1.99-.79,3.05-.52,4.81.99,6.96.66.22,1.33.44,1.99.66,3.02.08,4.42-.62,5.3-2.65.75-1.66.1-3.93-.33-5.3-1.57-1.1-2.37-1.71-5.3-1.66Z"/>
  <path class="st0" d="M691.15,544.55c-2.44,1.75-4.58,3.83-4.97,7.62.11.33.22.66.33.99,3.33,1.46,4.89-3.13,6.29-5.63-.11-.55-.22-1.1-.33-1.66-.44-.44-.88-.88-1.33-1.33Z"/>
  <path class="st0" d="M699.1,518.05c1.53-.89,1.78-2.49,2.32-4.31-.22-.44-.44-.88-.66-1.33-.55-.11-1.1-.22-1.66-.33-1.47,1.37-2.55,2.14-2.98,4.64.55.55,1.1,1.1,1.66,1.66.44-.11.88-.22,1.33-.33Z"/>
  <path class="st0" d="M684.85,604.83c5.63-.45,3.57-8.11,2.32-11.59-.33-.22-.66-.44-.99-.66h-.99c-.66.55-1.33,1.1-1.99,1.66-1.04,4.17-.3,7.81,1.66,10.6Z"/>
  <path class="st0" d="M704.73,573.03c2.1-1.98,5.84-11.77,3.64-15.24-.64-1.12-.98-1.24-2.32-1.66-3.71,2.78-4.03,10.53-3.31,16.56.66.11,1.33.22,1.99.33Z"/>
  <path class="st0" d="M699.1,600.2c2.61-1.23,5.43-4.13,4.31-7.95-.69-1.39-.98-1.55-2.98-1.66-2.01,1.92-3.26,4.39-3.31,8.28.11.22.22.44.33.66.55.22,1.1.44,1.66.66Z"/>
  <path class="st0" d="M624.9,764.5c4.9,5.18,8.99-2.56,7.29-7.29-1.6-1.2-2.53-2.16-5.3-2.32-1.21.66-2.43,1.33-3.64,1.99-.83,2.92-.74,6.14,1.66,7.62Z"/>
  <path class="st0" d="M686.84,508.77c3.14-1.36,4.2-3.6,5.3-6.96-1.13-1.51-1.22-1.98-3.98-1.99-2.02,1.87-3.64,3.7-3.98,7.29.44.55.88,1.1,1.33,1.66h1.33Z"/>
  <path class="st0" d="M653.38,904.95c-10.69,4.92-6.99,18.9,2.32,16.56,8.23-2.06,8.02-16.8-2.32-16.56Z"/>
  <path class="st0" d="M667.3,841.68c-2.13,1.26-4.53,2.05-5.96,3.98-4.76,6.41-4.83,21.67,3.64,23.85,14.33,3.69,21.83-28.6,2.32-27.83Z"/>
  <path class="st0" d="M685.18,546.53c.44-.11.88-.22,1.33-.33,2.45-1.06,6.06-6.99,3.31-9.94-.68-1.19-1.06-1.36-2.65-1.66-3.7,2.26-6.61,8.24-1.99,11.93Z"/>
  <path class="st0" d="M649.74,714.15c.66-.11,1.33-.22,1.99-.33,3.87-1.68,3.14-6.26.99-8.94-.99-.22-1.99-.44-2.98-.66-.55.22-1.1.44-1.66.66-1.7,2.6-2.03,4.34-.99,7.62.88.55,1.77,1.1,2.65,1.66Z"/>
  <path class="st0" d="M663.98,541.57c-.55.33-1.1.66-1.66.99-1.01,1.56-2.02,3.26-1.33,5.63.22.55.44,1.1.66,1.66.88.44,1.77.88,2.65,1.33,1.92-2.53,3.48-5.66,1.66-9.28-.66-.11-1.33-.22-1.99-.33Z"/>
  <path class="st0" d="M440.72,776.09c9.46-2,9.17-19.23-2.32-19.21-9.84,4.83-7.48,21.28,2.32,19.21Z"/>
  <path class="st0" d="M504.98,751.91c2.47-.92,4.63-4.16,2.65-7.29-.8-1.7-2.13-2.35-4.31-2.65-.88.44-1.77.88-2.65,1.33-1.07.59-1.18.81-1.66,1.99v3.64c.66.88,1.33,1.77,1.99,2.65,1.43.39,2.46.74,3.98.33Z"/>
  <path class="st0" d="M573.88,736.01c-.88.33-1.77.66-2.65.99-2.4,3.32-2.79,6.03-1.33,10.27,8.58,6.26,14.34-3.37,8.28-10.6-1.44-.22-2.87-.44-4.31-.66Z"/>
  <path class="st0" d="M576.86,611.46c.8-2.3-1.18-4.53-2.32-5.96-1.1-.22-2.21-.44-3.31-.66-1.21.55-2.43,1.1-3.64,1.66-1.74,2.51-3.08,7.2,0,9.61,3.9,3.05,8.95-.62,9.28-4.64Z"/>
  <path class="st0" d="M511.28,797.62c-6.52-2.46-14.36-3.1-23.19-2.98-6.96,2.72-14.76,2.27-21.2,4.97-23.03,9.63-42.69,28.62-50.68,53.33-14.2,43.9,14.37,83.76,43.73,95.73,7.6,3.1,20.79,7.47,32.13,5.63,8.17-1.32,16.11-1.02,23.19-2.98,23.45-6.51,39.9-23.57,48.36-45.05,18.62-47.27-20.45-96.6-52.34-108.65ZM424.82,894.68h.33l.66.99c-.33-.33-.66-.66-.99-.99ZM430.78,876.79h-.33c-.22-.33-.44-.66-.66-.99.33.22.66.44.99.66v.33ZM436.41,898.32c-.11.11-.22.22-.33.33h-.99c-.45-1.02-.52-.83-.33-1.99h.99c.22.22.44.44.66.66v.99ZM439.73,916.54c-.65-.86-.32-.31-.33-1.33.33.22.66.44.99.66l-.66.66ZM440.39,905.61c1.39.51.82-.07,1.33,1.33-1.39-.51-.82.07-1.33-1.33ZM444.03,878.12v-.66c.22-.11.44-.22.66-.33l.66.33c-.44.22-.88.44-1.33.66ZM448.34,874.81h.66c.22.44.44.88.66,1.33-1.39-.51-.82.07-1.33-1.33ZM456.95,885.07c-.44.11-.88.22-1.33.33v-1.66h1.33v1.33ZM457.61,837.37c-.69.48-.42.76-1.33.33.11-.22.22-.44.33-.66h.99v.33ZM461.59,909.92l.33-.66.33.66h-.66ZM462.58,920.19v-.99c.99.64.56.06.99,1.33-.33-.11-.66-.22-.99-.33ZM466.56,906.61h-.33v-1.66c.33.33.66.66.99.99l-.66.66ZM474.84,834.72v-1.99c.55.22,1.1.44,1.66.66v1.33c-.22.11-.44.22-.66.33h-.33l-.66-.33ZM475.83,851.95v-1.99h1.33c.11.55.22,1.1.33,1.66-.44.11-.88.22-1.33.33h-.33ZM478.81,931.12c-.11-.22-.22-.44-.33-.66.11-.11.22-.22.33-.33h.33l.33.66c-.22.11-.44.22-.66.33ZM478.81,885.07h-.33l-.99-.99c.22-.33.44-.66.66-.99h.99c.11.55.22,1.1.33,1.66l-.66.33ZM483.45,916.88h-.33c-.33-.44-.66-.88-.99-1.33h1.33v1.33ZM484.44,820.15h-1.33c.11-.44.22-.88.33-1.33h.99v1.33ZM486.43,812.2c.11-.33.22-.66.33-.99h.33c-.43.99.01.4-.66.99ZM496.7,837.37h1.33v1.66c-.44.11-.88.22-1.33.33l-.66-.33c.22-.55.44-1.1.66-1.66ZM495.38,939.4c-.64-.89-.4-.55-.33-1.66.33.22.66.44.99.66-.22.33-.44.66-.66.99ZM496.37,919.19l-.66-.99c.22-.11.44-.22.66-.33h.66c-.22.44-.44.88-.66,1.33ZM497.36,901.97c-.55.11-1.1.22-1.66.33.31-1.48.3-1.14.99-1.99.33.22.66.44.99.66-.11.33-.22.66-.33.99ZM498.36,849.96l-.33.33h-.66c-.22-.22-.44-.44-.66-.66.22-.33.44-.66.66-.99h.99v1.33ZM499.68,891.37h-.33c-.25-1.22-.18-1.04.33-1.99.44.11.88.22,1.33.33-.43,1.38-.17,1.05-1.33,1.66ZM501.67,826.44c-.11.11-.22.22-.33.33h-1.33c-.11-.22-.22-.44-.33-.66.22-.44.44-.88.66-1.33.44.11.88.22,1.33.33v1.33ZM502.99,879.11v-1.33c1.39.51.82-.07,1.33,1.33h-1.33ZM506.64,872.82h-.99c.11-.44.22-.88.33-1.33h1.33c-.22.44-.44.88-.66,1.33ZM512.6,856.92c-.11-.22-.22-.44-.33-.66.22-.33.44-.66.66-.99.44.22.88.44,1.33.66-.67,1.22-.02.72-1.66.99ZM521.88,891.37h-.33l-.66-.33c.11-.44.22-.88.33-1.33,1.39.51.82-.07,1.33,1.33l-.66.33ZM525.85,943.38h-1.33c.11-.44.22-.88.33-1.33h.99v1.33ZM527.18,908.59h1.33v1.33c-.22.11-.44.22-.66.33h-.99c.11-.55.22-1.1.33-1.66ZM527.51,924.49h.33c.11.22.22.44.33.66l-.66.33v-.99ZM529.16,934.76h-.99c-.53-1.08-.4-.67-.33-1.99h1.33c.11.55.22,1.1.33,1.66l-.33.33ZM532.81,930.46h-.33c-.22-.33-.44-.66-.66-.99h.99v.99ZM532.48,873.48h-.99c.11-.55.22-1.1.33-1.66.33.22.66.44.99.66l-.33.99ZM546.39,923.5c.22.11.44.22.66.33-.22.22-.44.44-.66.66l-.33-.33.33-.66Z"/>
  <path class="st0" d="M551.03,775.76c.77-1.32,1.55-2.65,2.32-3.98-.12-2.41-.7-3.31-1.33-4.97-1.72-1.21-2.84-2.02-5.96-1.99-4.88,2.9-5.73,6.68-1.99,11.26,2.65.71,4.56.45,6.96-.33Z"/>
  <path class="st0" d="M388.38,1025.53c-8.43,3.37-15.09,4.49-18.55,12.59-6.34,14.84,5.76,33,22.19,30.14,26.39-4.58,27.65-43.54-3.64-42.73Z"/>
  <path class="st0" d="M386.72,854.27c2.04-.81,2.81-1.96,3.64-3.98-.07-3.89-1.5-6.33-5.63-6.29-1.32.88-2.65,1.77-3.98,2.65-1.02,3.5-.51,5.88,1.99,7.62h3.98Z"/>
  <path class="st0" d="M450.66,1032.48c-2.13,1.31-2.89,1.65-4.31,3.64.44,1.66.88,3.31,1.33,4.97.77.44,1.55.88,2.32,1.33.99-.22,1.99-.44,2.98-.66,1.92-.88,2.55-2.28,3.31-4.31-.7-2.06-1.25-2.85-2.32-4.31-1.1-.22-2.21-.44-3.31-.66Z"/>
  <path class="st0" d="M531.81,1011.28c-8.16,3.63-13.99,5.85-16.56,14.91-3.88,13.67,7.03,28.34,21.2,25.84,24.83-4.38,27.33-41.63-4.64-40.74Z"/>
  <path class="st0" d="M423.16,987.43c-3.75,1.83-10.36,6.29-6.96,12.59.55.77,1.1,1.55,1.66,2.32,9.29,2.58,15.24-7.14,9.94-14.24-1.55-.22-3.09-.44-4.64-.66Z"/>
  <path class="st0" d="M588.79,674.07v-2.98c-.44-.55-.88-1.1-1.33-1.66-.66-.11-1.33-.22-1.99-.33-1.22,1.04-1.71,1.6-2.65,2.98.22.99.44,1.99.66,2.98,1.14.67,1.63.97,3.64.99.55-.66,1.1-1.33,1.66-1.99Z"/>
  <path class="st0" d="M616.28,689.3c-.5,2.08-.49,3.15,0,5.3.66.44,1.33.88,1.99,1.33,2.66-.22,3.79-1,4.97-2.65.11-1.21.22-2.43.33-3.64-.66-.66-1.33-1.33-1.99-1.99-.77-.11-1.55-.22-2.32-.33-.99.66-1.99,1.33-2.98,1.99Z"/>
  <path class="st0" d="M614.96,1075.55c-.88.77-1.77,1.55-2.65,2.32-.11.88-.22,1.77-.33,2.65h8.28c-.33-1.44-.66-2.87-.99-4.31-1.5-.92-2.61-1.47-4.31-.66Z"/>
  <path class="st0" d="M626.88,718.79c-.77-1.21-1.55-2.43-2.32-3.64-1.44-.22-2.87-.44-4.31-.66-.77.33-1.55.66-2.32.99-1.65,2.27-2.22,3.9-1.33,7.29,4,3.52,9.7,2.36,10.27-3.98Z"/>
  <path class="st0" d="M601.71,932.11c-1.91,1.26-2.91,1.84-3.98,3.98-.19,4.05,1.13,6.27,4.64,6.63,1.86.62,3.97-1.02,5.3-1.99,1.56-5.13-.06-8.85-5.96-8.61Z"/>
  <path class="st0" d="M624.56,654.52c-.66-.88-1.33-1.77-1.99-2.65h-.99l-2.32,2.32c.44,1.21.88,2.43,1.33,3.64,2.1.22,3.75-.61,3.98-3.31Z"/>
  <path class="st0" d="M600.05,583.3c-3.67,2.21-5.75,5.63-2.65,9.94.88.22,1.77.44,2.65.66,1.21-.77,2.43-1.55,3.64-2.32.78-2.77.95-4.35,0-6.96-1.2-.74-1.68-1.19-3.64-1.33Z"/>
  <path class="st0" d="M600.38,749.26c0-4.38-1.93-6.19-6.63-5.96-.99.77-1.99,1.55-2.98,2.32-.22.66-.44,1.33-.66,1.99.17,2.89,1.07,3.35,2.32,4.97,3.95,1.14,6.49-.11,7.95-3.31Z"/>
  <path class="st0" d="M594.75,713.15c-.03-2.79-.59-3.43-1.66-4.97-.99-.22-1.99-.44-2.98-.66-.88.44-1.77.88-2.65,1.33-.92,2.48-.84,3.73,0,6.29,1.21.44,2.43.88,3.64,1.33,1.8-1.14,2.63-1.33,3.64-3.31Z"/>
  <path class="st0" d="M607.67,889.05c4.1-.21,5.94-2,7.29-4.97.16-5.31-2.24-8.14-7.62-7.95-6.05,3.66-5.44,9.47.33,12.92Z"/>
  <path class="st0" d="M628.54,617.42c2.64-2.49,3.22-6,1.33-9.61-.55-.11-1.1-.22-1.66-.33-2.49,2.12-3.61,5.17-2.65,8.94.44.22.88.44,1.33.66.55.11,1.1.22,1.66.33Z"/>
  <path class="st0" d="M601.05,771.12c-.11-.55-.22-1.1-.33-1.66-.55-.55-1.1-1.1-1.66-1.66-.55-.11-1.1-.22-1.66-.33-1.58,1.37-3.24,3.93-.33,5.3.77.11,1.55.22,2.32.33.55-.66,1.1-1.33,1.66-1.99Z"/>
</svg>